<?xml version="1.0" encoding="utf-8"?>
<!-- Generator: Adobe Illustrator 25.2.0, SVG Export Plug-In . SVG Version: 6.00 Build 0)  -->
<svg version="1.1" id="tree_Image" xmlns="http://www.w3.org/2000/svg" xmlns:xlink="http://www.w3.org/1999/xlink" x="0px" y="0px"
	 viewBox="0 0 348.5 500" style="enable-background:new 0 0 348.5 500;" xml:space="preserve">
<style type="text/css">
	.st0{fill:#C0CCDC;}
	.st1{fill:#8B9BB5;}
	.st2{fill:#5B6986;}
</style>
<rect x="166" y="183.8" class="st0" width="16.5" height="16.5"/>
<rect x="166" y="167.3" class="st0" width="16.5" height="16.5"/>
<rect x="166" y="150.7" class="st0" width="16.5" height="16.5"/>
<rect x="166" y="134.2" class="st0" width="16.5" height="16.5"/>
<rect x="166" y="117.6" class="st0" width="16.5" height="16.6"/>
<rect x="166" y="101.1" class="st0" width="16.5" height="16.5"/>
<rect x="149.4" y="200.4" class="st0" width="16.5" height="16.5"/>
<rect x="149.4" y="183.8" class="st0" width="16.5" height="16.5"/>
<rect x="149.4" y="167.3" class="st1" width="16.5" height="16.5"/>
<rect x="149.4" y="150.7" class="st1" width="16.5" height="16.5"/>
<rect x="149.4" y="134.2" class="st1" width="16.5" height="16.5"/>
<rect x="149.4" y="117.6" class="st1" width="16.5" height="16.6"/>
<rect x="149.4" y="101.1" class="st0" width="16.5" height="16.5"/>
<rect x="149.4" y="84.5" class="st0" width="16.5" height="16.5"/>
<rect x="149.4" y="68" class="st0" width="16.5" height="16.5"/>
<rect x="132.9" y="216.9" class="st0" width="16.5" height="16.6"/>
<rect x="132.9" y="200.4" class="st0" width="16.5" height="16.5"/>
<rect x="132.9" y="183.8" class="st1" width="16.5" height="16.5"/>
<rect x="132.9" y="167.3" class="st1" width="16.5" height="16.5"/>
<rect x="132.9" y="150.7" class="st1" width="16.5" height="16.5"/>
<rect x="132.9" y="134.2" class="st1" width="16.5" height="16.5"/>
<rect x="132.9" y="117.6" class="st1" width="16.5" height="16.6"/>
<rect x="132.9" y="101.1" class="st1" width="16.5" height="16.5"/>
<rect x="132.9" y="84.5" class="st1" width="16.5" height="16.5"/>
<rect x="132.9" y="68" class="st0" width="16.5" height="16.5"/>
<rect x="132.9" y="51.5" class="st0" width="16.5" height="16.5"/>
<rect x="132.9" y="34.9" class="st0" width="16.5" height="16.5"/>
<rect x="116.4" y="216.9" class="st0" width="16.5" height="16.6"/>
<rect x="116.4" y="200.4" class="st0" width="16.5" height="16.5"/>
<rect x="116.4" y="183.8" class="st1" width="16.5" height="16.5"/>
<rect x="116.4" y="167.3" class="st1" width="16.5" height="16.5"/>
<rect x="116.4" y="150.7" class="st1" width="16.5" height="16.5"/>
<rect x="116.4" y="134.2" class="st1" width="16.5" height="16.5"/>
<rect x="116.4" y="117.6" class="st1" width="16.5" height="16.6"/>
<rect x="116.4" y="101.1" class="st1" width="16.5" height="16.5"/>
<rect x="116.4" y="84.5" class="st1" width="16.5" height="16.5"/>
<rect x="116.4" y="68" class="st1" width="16.5" height="16.5"/>
<rect x="116.4" y="51.5" class="st1" width="16.5" height="16.5"/>
<rect x="116.4" y="34.9" class="st0" width="16.5" height="16.5"/>
<rect x="116.4" y="18.4" class="st0" width="16.5" height="16.5"/>
<rect x="99.8" y="465.1" class="st1" width="16.5" height="16.5"/>
<rect x="99.8" y="448.5" class="st1" width="16.5" height="16.6"/>
<rect x="99.8" y="432" class="st1" width="16.5" height="16.5"/>
<rect x="99.8" y="415.5" class="st1" width="16.5" height="16.5"/>
<rect x="99.8" y="398.9" class="st1" width="16.5" height="16.5"/>
<rect x="99.8" y="382.4" class="st1" width="16.5" height="16.5"/>
<rect x="99.8" y="365.8" class="st1" width="16.5" height="16.5"/>
<rect x="99.8" y="349.3" class="st1" width="16.5" height="16.5"/>
<rect x="99.8" y="332.7" class="st1" width="16.5" height="16.6"/>
<rect x="99.8" y="316.2" class="st1" width="16.5" height="16.5"/>
<rect x="99.8" y="299.6" class="st1" width="16.5" height="16.5"/>
<rect x="99.8" y="283.1" class="st1" width="16.5" height="16.5"/>
<rect x="99.8" y="266.5" class="st1" width="16.5" height="16.5"/>
<rect x="99.8" y="250" class="st1" width="16.5" height="16.5"/>
<rect x="99.8" y="233.5" class="st1" width="16.5" height="16.5"/>
<rect x="99.8" y="216.9" class="st0" width="16.5" height="16.6"/>
<rect x="99.8" y="200.4" class="st0" width="16.5" height="16.5"/>
<rect x="99.8" y="183.8" class="st1" width="16.5" height="16.5"/>
<rect x="99.8" y="167.3" class="st1" width="16.5" height="16.5"/>
<rect x="99.8" y="150.7" class="st1" width="16.5" height="16.5"/>
<rect x="99.8" y="134.2" class="st1" width="16.5" height="16.5"/>
<rect x="99.8" y="117.6" class="st1" width="16.5" height="16.6"/>
<rect x="99.8" y="101.1" class="st1" width="16.5" height="16.5"/>
<rect x="99.8" y="84.5" class="st1" width="16.5" height="16.5"/>
<rect x="99.8" y="68" class="st1" width="16.5" height="16.5"/>
<rect x="99.8" y="51.5" class="st1" width="16.5" height="16.5"/>
<rect x="99.8" y="34.9" class="st1" width="16.5" height="16.5"/>
<rect x="99.8" y="18.4" class="st0" width="16.5" height="16.5"/>
<rect x="99.8" y="1.8" class="st0" width="16.5" height="16.6"/>
<rect x="83.3" y="481.6" class="st1" width="16.5" height="16.5"/>
<rect x="83.3" y="465.1" class="st1" width="16.5" height="16.5"/>
<rect x="83.3" y="448.5" class="st1" width="16.5" height="16.6"/>
<rect x="83.3" y="432" class="st1" width="16.5" height="16.5"/>
<rect x="83.3" y="415.5" class="st1" width="16.5" height="16.5"/>
<rect x="83.3" y="398.9" class="st1" width="16.5" height="16.5"/>
<rect x="83.3" y="382.4" class="st1" width="16.5" height="16.5"/>
<rect x="83.3" y="365.8" class="st1" width="16.5" height="16.5"/>
<rect x="83.3" y="349.3" class="st1" width="16.5" height="16.5"/>
<rect x="83.3" y="332.7" class="st1" width="16.5" height="16.6"/>
<rect x="83.3" y="316.2" class="st1" width="16.5" height="16.5"/>
<rect x="83.3" y="299.6" class="st1" width="16.5" height="16.5"/>
<rect x="83.3" y="283.1" class="st1" width="16.5" height="16.5"/>
<rect x="83.3" y="266.5" class="st1" width="16.5" height="16.5"/>
<rect x="83.3" y="250" class="st1" width="16.5" height="16.5"/>
<rect x="83.3" y="233.5" class="st1" width="16.5" height="16.5"/>
<rect x="83.3" y="216.9" class="st0" width="16.5" height="16.6"/>
<rect x="83.3" y="200.4" class="st0" width="16.5" height="16.5"/>
<rect x="83.3" y="183.8" class="st1" width="16.5" height="16.5"/>
<rect x="83.3" y="167.3" class="st1" width="16.5" height="16.5"/>
<rect x="83.3" y="150.7" class="st1" width="16.5" height="16.5"/>
<rect x="83.3" y="134.2" class="st1" width="16.5" height="16.5"/>
<rect x="83.3" y="117.6" class="st1" width="16.5" height="16.6"/>
<rect x="83.3" y="101.1" class="st1" width="16.5" height="16.5"/>
<rect x="83.3" y="84.5" class="st1" width="16.5" height="16.5"/>
<rect x="83.3" y="68" class="st1" width="16.5" height="16.5"/>
<rect x="83.3" y="51.5" class="st1" width="16.5" height="16.5"/>
<rect x="83.3" y="34.9" class="st1" width="16.5" height="16.5"/>
<rect x="83.3" y="18.4" class="st1" width="16.5" height="16.5"/>
<rect x="83.3" y="1.8" class="st0" width="16.5" height="16.6"/>
<rect x="66.7" y="481.6" class="st1" width="16.6" height="16.5"/>
<rect x="66.7" y="465.1" class="st1" width="16.6" height="16.5"/>
<rect x="66.7" y="448.5" class="st1" width="16.6" height="16.6"/>
<rect x="66.7" y="432" class="st1" width="16.6" height="16.5"/>
<rect x="66.7" y="415.5" class="st1" width="16.6" height="16.5"/>
<rect x="66.7" y="398.9" class="st1" width="16.6" height="16.5"/>
<rect x="66.7" y="382.4" class="st1" width="16.6" height="16.5"/>
<rect x="66.7" y="365.8" class="st1" width="16.6" height="16.5"/>
<rect x="66.7" y="349.3" class="st1" width="16.6" height="16.5"/>
<rect x="66.7" y="332.7" class="st1" width="16.6" height="16.6"/>
<rect x="66.7" y="316.2" class="st1" width="16.6" height="16.5"/>
<rect x="66.7" y="299.6" class="st1" width="16.6" height="16.5"/>
<rect x="66.7" y="283.1" class="st1" width="16.6" height="16.5"/>
<rect x="66.7" y="266.5" class="st1" width="16.6" height="16.5"/>
<rect x="66.7" y="250" class="st1" width="16.6" height="16.5"/>
<rect x="66.7" y="233.5" class="st1" width="16.6" height="16.5"/>
<rect x="66.7" y="216.9" class="st0" width="16.6" height="16.6"/>
<rect x="66.7" y="200.4" class="st0" width="16.6" height="16.5"/>
<rect x="66.7" y="183.8" class="st1" width="16.6" height="16.5"/>
<rect x="66.7" y="167.3" class="st1" width="16.6" height="16.5"/>
<rect x="66.7" y="150.7" class="st1" width="16.6" height="16.5"/>
<rect x="66.7" y="134.2" class="st1" width="16.6" height="16.5"/>
<rect x="66.7" y="117.6" class="st1" width="16.6" height="16.6"/>
<rect x="66.7" y="101.1" class="st1" width="16.6" height="16.5"/>
<rect x="66.7" y="84.5" class="st1" width="16.6" height="16.5"/>
<rect x="66.7" y="68" class="st1" width="16.6" height="16.5"/>
<rect x="66.7" y="51.5" class="st1" width="16.6" height="16.5"/>
<rect x="66.7" y="34.9" class="st2" width="16.6" height="16.5"/>
<rect x="66.7" y="18.4" class="st1" width="16.6" height="16.5"/>
<rect x="66.7" y="1.8" class="st0" width="16.6" height="16.6"/>
<rect x="50.2" y="465.1" class="st2" width="16.5" height="16.5"/>
<rect x="50.2" y="448.5" class="st2" width="16.5" height="16.6"/>
<rect x="50.2" y="432" class="st2" width="16.5" height="16.5"/>
<rect x="50.2" y="415.5" class="st2" width="16.5" height="16.5"/>
<rect x="50.2" y="398.9" class="st2" width="16.5" height="16.5"/>
<rect x="50.2" y="382.4" class="st2" width="16.5" height="16.5"/>
<rect x="50.2" y="365.8" class="st2" width="16.5" height="16.5"/>
<rect x="50.2" y="349.3" class="st2" width="16.5" height="16.5"/>
<rect x="50.2" y="332.7" class="st2" width="16.5" height="16.6"/>
<rect x="50.2" y="316.2" class="st2" width="16.5" height="16.5"/>
<rect x="50.2" y="299.6" class="st2" width="16.5" height="16.5"/>
<rect x="50.2" y="283.1" class="st2" width="16.5" height="16.5"/>
<rect x="50.2" y="266.5" class="st2" width="16.5" height="16.5"/>
<rect x="50.2" y="250" class="st2" width="16.5" height="16.5"/>
<rect x="50.2" y="233.5" class="st2" width="16.5" height="16.5"/>
<rect x="50.2" y="216.9" class="st0" width="16.5" height="16.6"/>
<rect x="50.2" y="200.4" class="st0" width="16.5" height="16.5"/>
<rect x="50.2" y="183.8" class="st1" width="16.5" height="16.5"/>
<rect x="50.2" y="167.3" class="st1" width="16.5" height="16.5"/>
<rect x="50.2" y="150.7" class="st1" width="16.5" height="16.5"/>
<rect x="50.2" y="134.2" class="st1" width="16.5" height="16.5"/>
<rect x="50.2" y="117.6" class="st1" width="16.5" height="16.6"/>
<rect x="50.2" y="101.1" class="st1" width="16.5" height="16.5"/>
<rect x="50.2" y="84.5" class="st2" width="16.5" height="16.5"/>
<rect x="50.2" y="68" class="st2" width="16.5" height="16.5"/>
<rect x="50.2" y="51.5" class="st2" width="16.5" height="16.5"/>
<rect x="50.2" y="34.9" class="st1" width="16.5" height="16.5"/>
<rect x="50.2" y="18.4" class="st0" width="16.5" height="16.5"/>
<rect x="50.2" y="1.8" class="st0" width="16.5" height="16.6"/>
<rect x="33.6" y="216.9" class="st0" width="16.5" height="16.6"/>
<rect x="33.6" y="200.4" class="st0" width="16.5" height="16.5"/>
<rect x="33.6" y="183.8" class="st1" width="16.5" height="16.5"/>
<rect x="33.6" y="167.3" class="st1" width="16.5" height="16.5"/>
<rect x="33.6" y="150.7" class="st1" width="16.5" height="16.5"/>
<rect x="33.6" y="134.2" class="st2" width="16.5" height="16.5"/>
<rect x="33.6" y="117.6" class="st2" width="16.5" height="16.6"/>
<rect x="33.6" y="101.1" class="st2" width="16.5" height="16.5"/>
<rect x="33.6" y="84.5" class="st2" width="16.5" height="16.5"/>
<rect x="33.6" y="68" class="st1" width="16.5" height="16.5"/>
<rect x="33.6" y="51.5" class="st1" width="16.5" height="16.5"/>
<rect x="33.6" y="34.9" class="st0" width="16.5" height="16.5"/>
<rect x="33.6" y="18.4" class="st0" width="16.5" height="16.5"/>
<rect x="17.1" y="216.9" class="st0" width="16.5" height="16.6"/>
<rect x="17.1" y="200.4" class="st0" width="16.5" height="16.5"/>
<rect x="17.1" y="183.8" class="st1" width="16.5" height="16.5"/>
<rect x="17.1" y="167.3" class="st1" width="16.5" height="16.5"/>
<rect x="17.1" y="150.7" class="st2" width="16.5" height="16.5"/>
<rect x="17.1" y="134.2" class="st2" width="16.5" height="16.5"/>
<rect x="17.1" y="117.6" class="st2" width="16.5" height="16.6"/>
<rect x="17.1" y="101.1" class="st1" width="16.5" height="16.5"/>
<rect x="17.1" y="84.5" class="st1" width="16.5" height="16.5"/>
<rect x="17.1" y="68" class="st0" width="16.5" height="16.5"/>
<rect x="17.1" y="51.5" class="st0" width="16.5" height="16.5"/>
<rect x="17.1" y="34.9" class="st0" width="16.5" height="16.5"/>
<rect x="0.5" y="200.4" class="st0" width="16.5" height="16.5"/>
<rect x="0.5" y="183.8" class="st0" width="16.5" height="16.5"/>
<rect x="0.5" y="167.3" class="st1" width="16.5" height="16.5"/>
<rect x="0.5" y="150.7" class="st1" width="16.5" height="16.5"/>
<rect x="0.5" y="134.2" class="st1" width="16.5" height="16.5"/>
<rect x="0.5" y="117.6" class="st1" width="16.5" height="16.6"/>
<rect x="0.5" y="101.1" class="st0" width="16.5" height="16.5"/>
<rect x="0.5" y="84.5" class="st0" width="16.5" height="16.5"/>
<rect x="0.5" y="68" class="st0" width="16.5" height="16.5"/>
</svg>
