<?xml version="1.0" encoding="utf-8"?>
<!-- Generator: Adobe Illustrator 25.2.0, SVG Export Plug-In . SVG Version: 6.00 Build 0)  -->
<svg version="1.1" id="Smallbros_Image" xmlns="http://www.w3.org/2000/svg" xmlns:xlink="http://www.w3.org/1999/xlink" x="0px"
	 y="0px" viewBox="0 0 707.8 131" style="enable-background:new 0 0 707.8 131;" xml:space="preserve">
<style type="text/css">
	.st0{fill:#FFFFFF;}
</style>
<g>
	<path class="st0" d="M29.7,42.2c2.3,0.9,3.5,2,3.5,3.5c0,1.5-0.6,3.3-1.7,5.4c-1.1,2.1-2,3.2-2.8,3.2c-0.2,0-0.4-0.1-0.7-0.3
		c-0.3-0.2-0.9-0.5-1.9-0.8c-1-0.3-1.8-0.4-2.5-0.4c-2.4,0-4.4,0.9-5.8,2.6c-1.5,1.7-2.2,4.3-2.2,7.8c0,3.5,0.8,6.1,2.3,7.8
		c1.5,1.7,3.4,2.6,5.8,2.6c1,0,2-0.1,3.2-0.4c1.2-0.3,2-0.7,2.5-1.2c0.1-0.1,0.2-0.1,0.5-0.1s0.7,0.5,1.4,1.4s1.3,2.2,1.9,3.7
		c0.6,1.5,0.9,2.7,0.9,3.5c0,1.6-1.2,2.9-3.8,3.9s-5.5,1.4-8.9,1.4c-5.5,0-10-1.9-13.6-5.8c-3.5-3.9-5.3-9.3-5.3-16.4S4.3,51,8,47
		c3.6-4,8.2-6.1,13.7-6.1C24.7,40.9,27.3,41.4,29.7,42.2z"/>
	<path class="st0" d="M41.2,81.6c-2.6-2.9-3.9-6.9-3.9-11.9c0-5.1,1.3-9.1,3.9-11.9c2.6-2.9,6.1-4.3,10.5-4.3
		c4.4,0,7.9,1.4,10.5,4.3c2.6,2.9,3.9,6.9,3.9,11.9c0,5.1-1.3,9.1-3.9,11.9c-2.6,2.9-6.1,4.3-10.5,4.3
		C47.3,85.9,43.8,84.4,41.2,81.6z M51.8,63.8c-2.4,0-3.5,1.9-3.5,5.8c0,3.8,1.2,5.8,3.5,5.8c2.4,0,3.5-1.9,3.5-5.8
		C55.3,65.7,54.1,63.8,51.8,63.8z"/>
	<path class="st0" d="M73,62.3h-3.1c-0.6,0-0.9-1.4-0.9-4.2c0-2.8,0.3-4.2,0.9-4.2H73v-1.4c0-4.4,0.9-7.5,2.8-9.2
		c1.9-1.7,4.4-2.5,7.8-2.5c3.3,0,6.3,0.6,8.8,1.8c0.3,0.1,0.5,0.6,0.5,1.3c0,0.8-0.4,2-1.1,3.7c-0.7,1.7-1.3,2.7-1.8,2.9
		c-1.4-0.9-2.9-1.3-4.4-1.3c-1.6,0-2.4,1.1-2.4,3.2V54h5.2c0.8,0,1.1,1.3,1.1,4c0,2.9-0.5,4.4-1.4,4.4h-4v22.1
		c0,0.5-1.8,0.8-5.5,0.8S73,85,73,84.5V62.3z"/>
	<path class="st0" d="M96.4,62.3h-3.1c-0.6,0-0.9-1.4-0.9-4.2c0-2.8,0.3-4.2,0.9-4.2h3.1v-1.4c0-4.4,0.9-7.5,2.8-9.2
		c1.9-1.7,4.4-2.5,7.8-2.5c3.3,0,6.3,0.6,8.8,1.8c0.3,0.1,0.5,0.6,0.5,1.3c0,0.8-0.4,2-1.1,3.7c-0.7,1.7-1.3,2.7-1.8,2.9
		c-1.4-0.9-2.9-1.3-4.4-1.3c-1.6,0-2.4,1.1-2.4,3.2V54h5.2c0.8,0,1.1,1.3,1.1,4c0,2.9-0.5,4.4-1.4,4.4h-4v22.1
		c0,0.5-1.8,0.8-5.5,0.8s-5.5-0.2-5.5-0.8V62.3z"/>
	<path class="st0" d="M139.5,83.6c-2.6,1.5-6,2.3-10.1,2.3s-7.6-1.4-10.4-4.2c-2.8-2.8-4.2-6.7-4.2-11.7c0-5,1.4-9,4.1-12
		c2.7-3,6.2-4.6,10.3-4.6c4.2,0,7.4,1.1,9.7,3.2c2.3,2.1,3.4,4.7,3.4,7.8c0,6.8-3.9,10.1-11.6,10.1h-4.3c0,1.2,0.3,2.1,1,2.6
		c0.7,0.5,1.7,0.7,3,0.7c2.9,0,5.7-0.7,8.3-2c0,0,0.2,0.2,0.6,0.9c1,1.8,1.5,3.3,1.5,4.5C140.7,82.4,140.3,83.2,139.5,83.6z
		 M131.7,65.5c0-1.8-0.9-2.6-2.6-2.6c-0.8,0-1.5,0.2-2,0.7c-0.6,0.5-0.8,1.2-0.8,2.1v1.9h3.4C131,67.6,131.7,66.9,131.7,65.5z"/>
	<path class="st0" d="M169.9,83.6c-2.6,1.5-6,2.3-10.1,2.3s-7.6-1.4-10.4-4.2c-2.8-2.8-4.2-6.7-4.2-11.7c0-5,1.4-9,4.1-12
		c2.7-3,6.2-4.6,10.3-4.6c4.2,0,7.4,1.1,9.7,3.2c2.3,2.1,3.4,4.7,3.4,7.8c0,6.8-3.9,10.1-11.6,10.1h-4.3c0,1.2,0.3,2.1,1,2.6
		c0.7,0.5,1.7,0.7,3,0.7c2.9,0,5.7-0.7,8.3-2c0,0,0.2,0.2,0.6,0.9c1,1.8,1.5,3.3,1.5,4.5C171.1,82.4,170.7,83.2,169.9,83.6z
		 M162.1,65.5c0-1.8-0.9-2.6-2.6-2.6c-0.8,0-1.5,0.2-2,0.7c-0.6,0.5-0.8,1.2-0.8,2.1v1.9h3.4C161.4,67.6,162.1,66.9,162.1,65.5z"/>
	<path class="st0" d="M194.1,85.4c-3.8,0-5.7-0.4-5.7-1.2V43.6c0-1.4,0.6-2.1,1.9-2.1h11c6.2,0,10.6,1.3,13.3,3.8
		c2.7,2.5,4.1,6.2,4.1,11.1c0,4-1.3,7.7-3.9,11c-1.3,1.7-3.2,3-5.7,4s-5.4,1.5-8.8,1.5v11.2c0,0.5-0.8,0.8-2.3,1
		S195.2,85.4,194.1,85.4z M200.5,52.4v9.9h0.8c1.5,0,2.7-0.5,3.7-1.4c1-0.9,1.5-2.2,1.5-3.9c0-1.7-0.3-2.9-1-3.6
		c-0.7-0.7-1.9-1.1-3.7-1.1H200.5z"/>
	<path class="st0" d="M223.7,54.4c0-0.5,1.8-0.7,5.4-0.7c3.6,0,5.4,0.2,5.4,0.7v18.2c0,2.1,0.7,3.1,2,3.1c1,0,2.1-0.4,3.4-1.3V54.4
		c0-0.4,1.8-0.6,5.3-0.6c3.5,0,5.3,0.2,5.3,0.6v20.5h1.6c1.4,0,2.1,1.4,2.1,4.1c0,1.4-0.3,2.8-0.9,4.2c-0.8,1.8-2,2.8-3.4,2.8
		c-2.8,0-4.9-1.1-6.2-3.4l-0.1,0.1c-2.5,2.2-5.3,3.4-8.2,3.4c-4,0-7-1-8.9-3c-1.9-2-2.9-5.4-2.9-10V54.4z"/>
	<path class="st0" d="M271.1,84.9c0,0.3-1.5,0.4-4.5,0.4c-4.2-0.1-6.2-0.4-6.2-0.7V64.4h-1.6c-1.1,0-1.8-0.9-2.1-2.8
		c-0.1-0.5-0.1-1.1-0.1-1.6c0-1.3,0.2-2.6,0.8-3.9c0.8-1.8,1.9-2.8,3.5-2.8c1.6,0,3,0.4,4.2,1.1s2.1,1.5,2.5,2.2
		c2.6-2.2,5.8-3.4,9.4-3.4s6.2,1,7.9,2.9c1.6,2,2.4,5.2,2.4,9.6v18.8c0,0.5-1.8,0.8-5.3,0.8s-5.3-0.2-5.3-0.8V66.6
		c0-2.1-0.7-3.1-2.2-3.1c-0.4,0-1,0.2-1.8,0.5c-0.8,0.4-1.2,0.6-1.4,0.8V84.9z"/>
	<path class="st0" d="M292.4,42c0-0.7,1.9-1,5.7-1c3.5,0.1,5.3,0.4,5.3,0.8v24l6.2-11.4c0.3-0.6,2.1-0.9,5.3-0.9s5.3,0.2,6.2,0.6
		l-8.1,13.2l9.4,17.6c0.1,0.2-0.7,0.3-2.3,0.4c-1.6,0.1-3,0.2-4.1,0.2c-4,0-6.1-0.2-6.4-0.6L303.4,71v13.8c0,0.5-1.8,0.8-5.5,0.8
		c-3.6,0-5.5-0.2-5.5-0.8V42z"/>
	<path class="st0" d="M325.7,74c3.4,2,6,3.1,8,3.1c1.2,0,1.9-0.4,1.9-1.3c0-0.6-1.1-1.4-3.2-2.4c-5.2-2.1-7.8-5.6-7.8-10.4
		c0-3.1,1.1-5.4,3.4-7.1s4.9-2.4,8.1-2.4c3.1,0,5.8,0.3,8,1c2.2,0.7,3.3,1.5,3.3,2.6c0,0.9-0.4,2.1-1.3,3.6
		c-0.9,1.5-1.5,2.3-1.8,2.4c-1.8-1-3.7-1.5-5.8-1.5c-1.1,0-1.7,0.4-1.7,1.2c0,0.5,0.2,0.9,0.7,1.3c0.4,0.4,1.2,0.8,2.4,1.3
		c1.2,0.5,2.1,1,2.9,1.4c0.8,0.4,1.6,1,2.6,1.8c2,1.6,3,3.6,3,6.2c0,3.3-1.1,6-3.3,8.1c-2.2,2.1-5.5,3.1-10,3.1
		c-3,0-5.6-0.5-8.1-1.5c-2.4-1-3.6-2.4-3.6-4.1c0-1.2,0.3-2.4,0.8-3.7C324.5,75.3,325.1,74.4,325.7,74z"/>
	<path class="st0" d="M364.6,41.7c0-0.5,1.8-0.8,5.4-0.8c3.6,0,5.4,0.3,5.4,0.8v12.1c1.8-0.3,3.1-0.5,3.8-0.5
		c8.8,0,13.1,5,13.1,15.1c0,5.6-1.3,9.9-4,12.9c-2.7,3-6.5,4.5-11.4,4.5s-9-1.1-12.3-3.3V41.7z M377.4,63.1c-0.7,0-1.4,0.2-2.1,0.7
		v11.9c0.6,0.2,1.2,0.4,1.8,0.4c0.6,0,1.3-0.2,2-0.8c1.2-0.8,1.8-2.8,1.8-5.8C380.9,65.3,379.8,63.1,377.4,63.1z"/>
	<path class="st0" d="M394.6,54.3c0-0.5,1.9-0.7,5.7-0.7s5.8,0.2,5.9,0.6l4.5,14.8l4.3-14.9c0.2-0.3,1.5-0.5,3.9-0.5
		c5.5,0,8.2,0.3,7.9,0.8l-14.7,41.8c0,0.2-1.2,0.4-3.4,0.4c-2.2,0-4.3-0.1-6.2-0.2c-1.9-0.1-2.8-0.3-2.8-0.5l5.4-13.1L394.6,54.3z"
		/>
	<path class="st0" d="M468.3,42.2c2.3,0.9,3.5,2,3.5,3.5c0,1.5-0.6,3.3-1.7,5.4c-1.1,2.1-2,3.2-2.8,3.2c-0.2,0-0.4-0.1-0.7-0.3
		c-0.3-0.2-0.9-0.5-1.9-0.8c-1-0.3-1.8-0.4-2.5-0.4c-2.4,0-4.4,0.9-5.8,2.6c-1.5,1.7-2.2,4.3-2.2,7.8c0,3.5,0.8,6.1,2.3,7.8
		c1.5,1.7,3.4,2.6,5.8,2.6c1,0,2-0.1,3.2-0.4c1.2-0.3,2-0.7,2.5-1.2c0.1-0.1,0.2-0.1,0.5-0.1s0.7,0.5,1.4,1.4s1.3,2.2,1.9,3.7
		c0.6,1.5,0.9,2.7,0.9,3.5c0,1.6-1.2,2.9-3.8,3.9s-5.5,1.4-8.9,1.4c-5.5,0-10-1.9-13.6-5.8c-3.5-3.9-5.3-9.3-5.3-16.4
		s1.8-12.6,5.5-16.7c3.6-4,8.2-6.1,13.7-6.1C463.3,40.9,466,41.4,468.3,42.2z"/>
	<path class="st0" d="M481.1,62.6c-1.2-2.1-1.8-3.8-1.8-5.1s0.4-2.2,1.1-2.5c2.4-1,5.6-1.6,9.8-1.6c4.1,0,7.1,1,8.8,2.9
		c1.7,1.9,2.6,4.8,2.6,8.6v9.9h2.1c0.7,0,1.3,0.4,1.7,1.2c0.4,0.8,0.6,2,0.6,3.4c0,1.5-0.4,2.9-1.1,4.3c-0.7,1.4-1.7,2.1-3,2.1
		c-2.2,0-4.1-0.6-5.4-1.8c-0.6-0.5-1.1-1.1-1.4-1.8c-1.9,2.4-4.9,3.6-8.9,3.6c-3,0-5.6-1.1-7.7-3.2c-2.1-2.2-3.1-4.7-3.1-7.7
		c0-6.8,4.1-10.2,12.2-10.2h3.4v-0.6c0-1.1-0.2-1.8-0.5-2.1c-0.4-0.3-1.2-0.5-2.5-0.5C486.2,61.6,484,61.9,481.1,62.6z M486.1,74.1
		c0,0.9,0.2,1.6,0.8,2.1c0.5,0.5,1.1,0.7,1.9,0.7c0.8,0,1.5-0.3,2.1-0.9v-4.8h-1.8C487.1,71.1,486.1,72.1,486.1,74.1z"/>
	<path class="st0" d="M511.9,62.3h-3.1c-0.6,0-0.9-1.4-0.9-4.2c0-2.8,0.3-4.2,0.9-4.2h3.1v-1.4c0-4.4,0.9-7.5,2.8-9.2
		c1.9-1.7,4.4-2.5,7.8-2.5c3.3,0,6.3,0.6,8.8,1.8c0.3,0.1,0.5,0.6,0.5,1.3c0,0.8-0.4,2-1.1,3.7c-0.7,1.7-1.3,2.7-1.8,2.9
		c-1.4-0.9-2.9-1.3-4.4-1.3c-1.6,0-2.4,1.1-2.4,3.2V54h5.2c0.8,0,1.1,1.3,1.1,4c0,2.9-0.5,4.4-1.4,4.4h-4v22.1
		c0,0.5-1.8,0.8-5.5,0.8s-5.5-0.2-5.5-0.8V62.3z"/>
	<path class="st0" d="M556.5,83.6c-2.6,1.5-6,2.3-10.1,2.3s-7.6-1.4-10.4-4.2c-2.8-2.8-4.2-6.7-4.2-11.7c0-5,1.4-9,4.1-12
		c2.7-3,6.2-4.6,10.3-4.6c4.2,0,7.4,1.1,9.7,3.2c2.3,2.1,3.4,4.7,3.4,7.8c0,6.8-3.9,10.1-11.6,10.1h-4.3c0,1.2,0.3,2.1,1,2.6
		c0.7,0.5,1.7,0.7,3,0.7c2.9,0,5.7-0.7,8.3-2c0,0,0.2,0.2,0.6,0.9c1,1.8,1.5,3.3,1.5,4.5C557.7,82.4,557.3,83.2,556.5,83.6z
		 M541.2,52.2c-0.4,0-0.9-0.4-1.4-1.2c-0.8-1.2-1.1-2.1-1.1-2.9c0-0.8,0.1-1.3,0.4-1.6c6.8-3.8,10.2-5.6,10.4-5.6
		c0.4,0,0.9,0.5,1.6,1.5c1,1.5,1.4,2.8,1.4,4.1c0,0.5-0.1,0.8-0.3,1C544.9,50.6,541.3,52.2,541.2,52.2z M548.7,65.5
		c0-1.8-0.9-2.6-2.6-2.6c-0.8,0-1.5,0.2-2,0.7c-0.6,0.5-0.8,1.2-0.8,2.1v1.9h3.4C548,67.6,548.7,66.9,548.7,65.5z"/>
	<path class="st0" d="M606.4,66.6c0.4,0,0.6,1.6,0.6,4.7c0,3.1-0.2,4.7-0.6,4.7l-4.1,0.1v7.9c0,0.5-0.9,0.8-2.6,1
		c-1.7,0.2-3.2,0.3-4.4,0.3l-2.6-0.1c-2.1-0.2-3.2-0.5-3.2-1.1v-7.8H577c-1.1-1.1-2.1-2.5-2.9-4.2c-0.9-1.7-1.3-3-1.3-3.8
		c0-0.8,0.1-1.4,0.4-1.8l13.7-24.2c0.2-0.3,1.4-0.6,3.8-0.8c2.4-0.2,4.9-0.2,7.5-0.2s3.9,0.1,3.9,0.3l0.1,25.1H606.4z M591.3,66.6
		V53.6L584,66.6H591.3z"/>
	<path class="st0" d="M642,85.4c-3.6,0-5.6-0.6-5.9-1.8l-2.1-8.1h-9.9l-1.8,7.8c-0.2,1.3-2.2,1.9-6,1.9c-2,0-3.5-0.1-4.4-0.3
		c-1-0.2-1.4-0.4-1.4-0.5l11.1-42.3c0-0.3,2.9-0.5,8.6-0.5c5.7,0,8.6,0.2,8.6,0.5l10.8,42.4c0,0.3-1,0.5-2.9,0.7
		C644.7,85.3,643.2,85.4,642,85.4z M625.7,67.6h6.6l-2.8-12.9h-0.4L625.7,67.6z"/>
	<path class="st0" d="M697.4,85.3c-3.7,0-5.6-0.4-5.6-1.2L690.5,59l-7.6,25.4c-0.2,0.5-1.6,0.8-4.2,0.8c-2.7,0-4-0.2-4.1-0.7
		l-7.9-25.7l-0.9,24.9c0,0.6-0.8,1.1-2.4,1.3c-1.5,0.2-2.8,0.3-3.8,0.3c-1,0-2-0.1-3-0.2c-2-0.3-3-0.8-2.9-1.6l1.4-40.6
		c0-1,2.5-1.5,7.6-1.5c1.5,0,3.3,0.1,5.5,0.3c2.2,0.2,3.4,0.7,3.6,1.3l7,19.7l6.1-19.7c0.4-1.1,3.2-1.6,8.6-1.6
		c1.5,0,3.4,0.1,5.5,0.3c2.1,0.2,3.2,0.6,3.2,1.2l1.8,41c0,0.5-0.8,0.8-2.4,1C700,85.2,698.6,85.3,697.4,85.3z"/>
</g>
</svg>
