<?xml version="1.0" encoding="utf-8"?>
<!-- Generator: Adobe Illustrator 25.2.0, SVG Export Plug-In . SVG Version: 6.00 Build 0)  -->
<svg version="1.1" id="afkingsun_Image" xmlns="http://www.w3.org/2000/svg" xmlns:xlink="http://www.w3.org/1999/xlink" x="0px"
	 y="0px" viewBox="0 0 212.9 203" style="enable-background:new 0 0 212.9 203;" xml:space="preserve">
<style type="text/css">
	.st0{fill:#FFDF5A;}
	.st1{fill:#FFD400;}
	.st2{fill:#EF8F0F;}
	.st3{fill:#EFAF0F;}
	.st4{fill:#2B2B2B;}
	.st5{fill:#FFEEA6;}
</style>
<g>
	<g id="XMLID_3_">
		<g>
			<rect x="185.5" y="76.6" class="st0" width="8.3" height="8.3"/>
			<rect x="177.2" y="84.9" class="st1" width="8.3" height="8.3"/>
			<rect x="177.2" y="76.6" class="st0" width="8.3" height="8.3"/>
			<rect x="168.8" y="93.2" class="st1" width="8.3" height="8.3"/>
			<rect x="168.8" y="84.9" class="st0" width="8.3" height="8.3"/>
			<rect x="168.8" y="76.6" class="st1" width="8.3" height="8.3"/>
			<rect x="160.5" y="184.7" class="st2" width="8.3" height="8.3"/>
			<rect x="160.5" y="176.4" class="st2" width="8.3" height="8.3"/>
			<rect x="160.5" y="168.1" class="st2" width="8.3" height="8.3"/>
			<rect x="160.5" y="101.5" class="st1" width="8.3" height="8.3"/>
			<rect x="160.5" y="93.2" class="st1" width="8.3" height="8.3"/>
			<rect x="160.5" y="84.9" class="st1" width="8.3" height="8.3"/>
			<rect x="160.5" y="76.6" class="st0" width="8.3" height="8.3"/>
			<rect x="152.2" y="184.7" class="st2" width="8.3" height="8.3"/>
			<rect x="152.2" y="176.4" class="st3" width="8.3" height="8.3"/>
			<rect x="152.2" y="168.1" class="st2" width="8.3" height="8.3"/>
			<rect x="152.2" y="159.8" class="st3" width="8.3" height="8.3"/>
			<rect x="152.2" y="151.4" class="st3" width="8.3" height="8.3"/>
			<rect x="152.2" y="143.1" class="st1" width="8.3" height="8.3"/>
			<rect x="152.2" y="134.8" class="st3" width="8.3" height="8.3"/>
			<rect x="152.2" y="109.8" class="st1" width="8.3" height="8.3"/>
			<rect x="152.2" y="101.5" class="st1" width="8.3" height="8.3"/>
			<rect x="152.2" y="93.2" class="st1" width="8.3" height="8.3"/>
			<rect x="152.2" y="84.9" class="st0" width="8.3" height="8.3"/>
			<rect x="152.2" y="76.6" class="st1" width="8.3" height="8.3"/>
			<rect x="143.9" y="176.4" class="st2" width="8.3" height="8.3"/>
			<rect x="143.9" y="168.1" class="st3" width="8.3" height="8.3"/>
			<rect x="143.9" y="159.8" class="st3" width="8.3" height="8.3"/>
			<rect x="143.9" y="151.4" class="st3" width="8.3" height="8.3"/>
			<rect x="143.9" y="143.1" class="st3" width="8.3" height="8.3"/>
			<rect x="143.9" y="134.8" class="st1" width="8.3" height="8.3"/>
			<rect x="143.9" y="126.5" class="st1" width="8.3" height="8.3"/>
			<rect x="143.9" y="118.2" class="st1" width="8.3" height="8.3"/>
			<rect x="143.9" y="109.8" class="st1" width="8.3" height="8.3"/>
			<rect x="143.9" y="101.5" class="st1" width="8.3" height="8.3"/>
			<rect x="143.9" y="93.2" class="st1" width="8.3" height="8.3"/>
			<rect x="143.9" y="84.9" class="st1" width="8.3" height="8.3"/>
			<rect x="143.9" y="76.6" class="st0" width="8.3" height="8.3"/>
			<rect x="135.6" y="168.1" class="st3" width="8.3" height="8.3"/>
			<rect x="135.6" y="159.8" class="st3" width="8.3" height="8.3"/>
			<rect x="135.6" y="151.4" class="st3" width="8.3" height="8.3"/>
			<rect x="135.6" y="143.1" class="st1" width="8.3" height="8.3"/>
			<rect x="135.6" y="134.8" class="st3" width="8.3" height="8.3"/>
			<rect x="135.6" y="126.5" class="st1" width="8.3" height="8.3"/>
			<rect x="135.6" y="118.2" class="st1" width="8.3" height="8.3"/>
			<rect x="135.6" y="109.8" class="st1" width="8.3" height="8.3"/>
			<rect x="135.6" y="101.5" class="st1" width="8.3" height="8.3"/>
			<rect x="135.6" y="93.2" class="st1" width="8.3" height="8.3"/>
			<rect x="135.6" y="84.9" class="st0" width="8.3" height="8.3"/>
			<rect x="135.6" y="76.6" class="st1" width="8.3" height="8.3"/>
			<rect x="127.2" y="159.8" class="st3" width="8.3" height="8.3"/>
			<rect x="127.2" y="151.4" class="st3" width="8.3" height="8.3"/>
			<rect x="127.2" y="143.1" class="st3" width="8.3" height="8.3"/>
			<rect x="127.2" y="134.8" class="st1" width="8.3" height="8.3"/>
			<rect x="127.2" y="126.5" class="st1" width="8.3" height="8.3"/>
			<rect x="127.2" y="118.2" class="st1" width="8.3" height="8.3"/>
			<rect x="127.2" y="109.8" class="st1" width="8.3" height="8.3"/>
			<rect x="127.2" y="101.5" class="st1" width="8.3" height="8.3"/>
			<rect x="127.2" y="93.2" class="st1" width="8.3" height="8.3"/>
			<rect x="127.2" y="84.9" class="st1" width="8.3" height="8.3"/>
			<rect x="127.2" y="76.6" class="st0" width="8.3" height="8.3"/>
			<rect x="127.2" y="68.2" class="st0" width="8.3" height="8.3"/>
			<rect x="118.9" y="151.4" class="st3" width="8.3" height="8.3"/>
			<rect x="118.9" y="143.1" class="st1" width="8.3" height="8.3"/>
			<rect x="118.9" y="134.8" class="st3" width="8.3" height="8.3"/>
			<rect x="118.9" y="126.5" class="st1" width="8.3" height="8.3"/>
			<rect x="118.9" y="118.2" class="st4" width="8.3" height="8.3"/>
			<rect x="118.9" y="109.8" class="st1" width="8.3" height="8.3"/>
			<rect x="118.9" y="101.5" class="st4" width="8.3" height="8.3"/>
			<rect x="118.9" y="93.2" class="st4" width="8.3" height="8.3"/>
			<rect x="118.9" y="84.9" class="st4" width="8.3" height="8.3"/>
			<rect x="118.9" y="76.6" class="st1" width="8.3" height="8.3"/>
			<rect x="118.9" y="68.2" class="st0" width="8.3" height="8.3"/>
			<rect x="118.9" y="59.9" class="st0" width="8.3" height="8.3"/>
			<rect x="118.9" y="51.6" class="st0" width="8.3" height="8.3"/>
			<rect x="118.9" y="43.3" class="st5" width="8.3" height="8.3"/>
			<rect x="110.6" y="143.1" class="st3" width="8.3" height="8.3"/>
			<rect x="110.6" y="134.8" class="st1" width="8.3" height="8.3"/>
			<rect x="110.6" y="126.5" class="st4" width="8.3" height="8.3"/>
			<rect x="110.6" y="118.2" class="st1" width="8.3" height="8.3"/>
			<rect x="110.6" y="109.8" class="st1" width="8.3" height="8.3"/>
			<rect x="110.6" y="101.5" class="st1" width="8.3" height="8.3"/>
			<rect x="110.6" y="93.2" class="st1" width="8.3" height="8.3"/>
			<rect x="110.6" y="84.9" class="st1" width="8.3" height="8.3"/>
			<rect x="110.6" y="76.6" class="st0" width="8.3" height="8.3"/>
			<rect x="110.6" y="68.2" class="st0" width="8.3" height="8.3"/>
			<rect x="110.6" y="59.9" class="st0" width="8.3" height="8.3"/>
			<rect x="110.6" y="51.6" class="st5" width="8.3" height="8.3"/>
			<rect x="110.6" y="43.3" class="st0" width="8.3" height="8.3"/>
			<rect x="110.6" y="35" class="st5" width="8.3" height="8.3"/>
			<rect x="110.6" y="26.6" class="st5" width="8.3" height="8.3"/>
			<rect x="102.3" y="134.8" class="st3" width="8.3" height="8.3"/>
			<rect x="102.3" y="126.5" class="st4" width="8.3" height="8.3"/>
			<rect x="102.3" y="118.2" class="st1" width="8.3" height="8.3"/>
			<rect x="102.3" y="109.8" class="st1" width="8.3" height="8.3"/>
			<rect x="102.3" y="101.5" class="st1" width="8.3" height="8.3"/>
			<rect x="102.3" y="93.2" class="st1" width="8.3" height="8.3"/>
			<rect x="102.3" y="84.9" class="st0" width="8.3" height="8.3"/>
			<rect x="102.3" y="76.6" class="st1" width="8.3" height="8.3"/>
			<rect x="102.3" y="68.2" class="st0" width="8.3" height="8.3"/>
			<rect x="102.3" y="59.9" class="st0" width="8.3" height="8.3"/>
			<rect x="102.3" y="51.6" class="st0" width="8.3" height="8.3"/>
			<rect x="102.3" y="43.3" class="st5" width="8.3" height="8.3"/>
			<rect x="102.3" y="35" class="st5" width="8.3" height="8.3"/>
			<rect x="102.3" y="26.6" class="st5" width="8.3" height="8.3"/>
			<rect x="102.3" y="18.3" class="st5" width="8.3" height="8.3"/>
			<rect x="102.3" y="10" class="st5" width="8.3" height="8.3"/>
			<rect x="94" y="143.1" class="st3" width="8.3" height="8.3"/>
			<rect x="94" y="134.8" class="st1" width="8.3" height="8.3"/>
			<rect x="94" y="126.5" class="st4" width="8.3" height="8.3"/>
			<rect x="94" y="118.2" class="st1" width="8.3" height="8.3"/>
			<rect x="94" y="109.8" class="st1" width="8.3" height="8.3"/>
			<rect x="94" y="101.5" class="st1" width="8.3" height="8.3"/>
			<rect x="94" y="93.2" class="st1" width="8.3" height="8.3"/>
			<rect x="94" y="84.9" class="st1" width="8.3" height="8.3"/>
			<rect x="94" y="76.6" class="st0" width="8.3" height="8.3"/>
			<rect x="94" y="68.2" class="st0" width="8.3" height="8.3"/>
			<rect x="94" y="59.9" class="st0" width="8.3" height="8.3"/>
			<rect x="94" y="51.6" class="st5" width="8.3" height="8.3"/>
			<rect x="94" y="43.3" class="st0" width="8.3" height="8.3"/>
			<rect x="94" y="35" class="st5" width="8.3" height="8.3"/>
			<rect x="94" y="26.6" class="st5" width="8.3" height="8.3"/>
			<rect x="85.6" y="151.4" class="st3" width="8.3" height="8.3"/>
			<rect x="85.6" y="143.1" class="st1" width="8.3" height="8.3"/>
			<rect x="85.6" y="134.8" class="st3" width="8.3" height="8.3"/>
			<rect x="85.6" y="126.5" class="st1" width="8.3" height="8.3"/>
			<rect x="85.6" y="118.2" class="st4" width="8.3" height="8.3"/>
			<rect x="85.6" y="109.8" class="st1" width="8.3" height="8.3"/>
			<rect x="85.6" y="101.5" class="st4" width="8.3" height="8.3"/>
			<rect x="85.6" y="93.2" class="st4" width="8.3" height="8.3"/>
			<rect x="85.6" y="84.9" class="st4" width="8.3" height="8.3"/>
			<rect x="85.6" y="76.6" class="st1" width="8.3" height="8.3"/>
			<rect x="85.6" y="68.2" class="st0" width="8.3" height="8.3"/>
			<rect x="85.6" y="59.9" class="st0" width="8.3" height="8.3"/>
			<rect x="85.6" y="51.6" class="st0" width="8.3" height="8.3"/>
			<rect x="85.6" y="43.3" class="st5" width="8.3" height="8.3"/>
			<rect x="77.3" y="159.8" class="st3" width="8.3" height="8.3"/>
			<rect x="77.3" y="151.4" class="st3" width="8.3" height="8.3"/>
			<rect x="77.3" y="143.1" class="st3" width="8.3" height="8.3"/>
			<rect x="77.3" y="134.8" class="st1" width="8.3" height="8.3"/>
			<rect x="77.3" y="126.5" class="st1" width="8.3" height="8.3"/>
			<rect x="77.3" y="118.2" class="st1" width="8.3" height="8.3"/>
			<rect x="77.3" y="109.8" class="st1" width="8.3" height="8.3"/>
			<rect x="77.3" y="101.5" class="st1" width="8.3" height="8.3"/>
			<rect x="77.3" y="93.2" class="st1" width="8.3" height="8.3"/>
			<rect x="77.3" y="84.9" class="st1" width="8.3" height="8.3"/>
			<rect x="77.3" y="76.6" class="st0" width="8.3" height="8.3"/>
			<rect x="77.3" y="68.2" class="st0" width="8.3" height="8.3"/>
			<rect x="69" y="168.1" class="st3" width="8.3" height="8.3"/>
			<rect x="69" y="159.8" class="st3" width="8.3" height="8.3"/>
			<rect x="69" y="151.4" class="st3" width="8.3" height="8.3"/>
			<rect x="69" y="143.1" class="st1" width="8.3" height="8.3"/>
			<rect x="69" y="134.8" class="st3" width="8.3" height="8.3"/>
			<rect x="69" y="126.5" class="st1" width="8.3" height="8.3"/>
			<rect x="69" y="118.2" class="st1" width="8.3" height="8.3"/>
			<rect x="69" y="109.8" class="st1" width="8.3" height="8.3"/>
			<rect x="69" y="101.5" class="st1" width="8.3" height="8.3"/>
			<rect x="69" y="93.2" class="st1" width="8.3" height="8.3"/>
			<rect x="69" y="84.9" class="st0" width="8.3" height="8.3"/>
			<rect x="69" y="76.6" class="st1" width="8.3" height="8.3"/>
			<rect x="60.7" y="176.4" class="st2" width="8.3" height="8.3"/>
			<rect x="60.7" y="168.1" class="st3" width="8.3" height="8.3"/>
			<rect x="60.7" y="159.8" class="st3" width="8.3" height="8.3"/>
			<rect x="60.7" y="151.4" class="st3" width="8.3" height="8.3"/>
			<rect x="60.7" y="143.1" class="st3" width="8.3" height="8.3"/>
			<rect x="60.7" y="134.8" class="st1" width="8.3" height="8.3"/>
			<rect x="60.7" y="126.5" class="st1" width="8.3" height="8.3"/>
			<rect x="60.7" y="118.2" class="st1" width="8.3" height="8.3"/>
			<rect x="60.7" y="109.8" class="st1" width="8.3" height="8.3"/>
			<rect x="60.7" y="101.5" class="st1" width="8.3" height="8.3"/>
			<rect x="60.7" y="93.2" class="st1" width="8.3" height="8.3"/>
			<rect x="60.7" y="84.9" class="st1" width="8.3" height="8.3"/>
			<rect x="60.7" y="76.6" class="st0" width="8.3" height="8.3"/>
			<rect x="52.4" y="184.7" class="st2" width="8.3" height="8.3"/>
			<rect x="52.4" y="176.4" class="st3" width="8.3" height="8.3"/>
			<rect x="52.4" y="168.1" class="st2" width="8.3" height="8.3"/>
			<rect x="52.4" y="159.8" class="st3" width="8.3" height="8.3"/>
			<rect x="52.4" y="151.4" class="st3" width="8.3" height="8.3"/>
			<rect x="52.4" y="143.1" class="st1" width="8.3" height="8.3"/>
			<rect x="52.4" y="134.8" class="st3" width="8.3" height="8.3"/>
			<rect x="52.4" y="109.8" class="st1" width="8.3" height="8.3"/>
			<rect x="52.4" y="101.5" class="st1" width="8.3" height="8.3"/>
			<rect x="52.4" y="93.2" class="st1" width="8.3" height="8.3"/>
			<rect x="52.4" y="84.9" class="st0" width="8.3" height="8.3"/>
			<rect x="52.4" y="76.6" class="st1" width="8.3" height="8.3"/>
			<rect x="44" y="184.7" class="st2" width="8.3" height="8.3"/>
			<rect x="44" y="176.4" class="st2" width="8.3" height="8.3"/>
			<rect x="44" y="168.1" class="st2" width="8.3" height="8.3"/>
			<rect x="44" y="101.5" class="st1" width="8.3" height="8.3"/>
			<rect x="44" y="93.2" class="st1" width="8.3" height="8.3"/>
			<rect x="44" y="84.9" class="st1" width="8.3" height="8.3"/>
			<rect x="44" y="76.6" class="st0" width="8.3" height="8.3"/>
			<rect x="35.7" y="93.2" class="st1" width="8.3" height="8.3"/>
			<rect x="35.7" y="84.9" class="st0" width="8.3" height="8.3"/>
			<rect x="35.7" y="76.6" class="st1" width="8.3" height="8.3"/>
			<rect x="27.4" y="84.9" class="st1" width="8.3" height="8.3"/>
			<rect x="27.4" y="76.6" class="st0" width="8.3" height="8.3"/>
			<rect x="19.1" y="76.6" class="st0" width="8.3" height="8.3"/>
		</g>
		<g>
		</g>
	</g>
</g>
</svg>
