<?xml version="1.0" encoding="utf-8"?>
<!-- Generator: Adobe Illustrator 25.2.0, SVG Export Plug-In . SVG Version: 6.00 Build 0)  -->
<svg version="1.1" id="tree_on_the_side_Image" xmlns="http://www.w3.org/2000/svg" xmlns:xlink="http://www.w3.org/1999/xlink"
	 x="0px" y="0px" viewBox="0 0 240 343" style="enable-background:new 0 0 240 343;" xml:space="preserve">
<style type="text/css">
	.st0{fill:#C0CCDC;}
	.st1{fill:#8B9BB5;}
	.st2{fill:#5B6986;}
</style>
<g>
	<rect x="260.8" y="125.6" class="st0" width="11.5" height="11.5"/>
	<rect x="260.8" y="114.1" class="st0" width="11.5" height="11.5"/>
	<rect x="260.8" y="102.6" class="st0" width="11.5" height="11.5"/>
	<rect x="260.8" y="91.2" class="st0" width="11.5" height="11.5"/>
	<rect x="260.8" y="79.7" class="st0" width="11.5" height="11.5"/>
	<rect x="260.8" y="68.2" class="st0" width="11.5" height="11.5"/>
	<rect x="249.3" y="137.1" class="st0" width="11.5" height="11.5"/>
	<rect x="249.3" y="125.6" class="st0" width="11.5" height="11.5"/>
	<rect x="249.3" y="114.1" class="st1" width="11.5" height="11.5"/>
	<rect x="249.3" y="102.6" class="st1" width="11.5" height="11.5"/>
	<rect x="249.3" y="91.2" class="st1" width="11.5" height="11.5"/>
	<rect x="249.3" y="79.7" class="st1" width="11.5" height="11.5"/>
	<rect x="249.3" y="68.2" class="st0" width="11.5" height="11.5"/>
	<rect x="249.3" y="56.8" class="st0" width="11.5" height="11.5"/>
	<rect x="249.3" y="45.3" class="st0" width="11.5" height="11.5"/>
	<rect x="237.9" y="148.5" class="st0" width="11.5" height="11.5"/>
	<rect x="237.9" y="137.1" class="st0" width="11.5" height="11.5"/>
	<rect x="237.9" y="125.6" class="st1" width="11.5" height="11.5"/>
	<rect x="237.9" y="114.1" class="st1" width="11.5" height="11.5"/>
	<rect x="237.9" y="102.6" class="st1" width="11.5" height="11.5"/>
	<rect x="237.9" y="91.2" class="st1" width="11.5" height="11.5"/>
	<rect x="237.9" y="79.7" class="st1" width="11.5" height="11.5"/>
	<rect x="237.9" y="68.2" class="st1" width="11.5" height="11.5"/>
	<rect x="237.9" y="56.8" class="st1" width="11.5" height="11.5"/>
	<rect x="237.9" y="45.3" class="st0" width="11.5" height="11.5"/>
	<rect x="237.9" y="33.8" class="st0" width="11.5" height="11.5"/>
	<rect x="237.9" y="22.3" class="st0" width="11.5" height="11.5"/>
	<rect x="226.4" y="148.5" class="st0" width="11.5" height="11.5"/>
	<rect x="226.4" y="137.1" class="st0" width="11.5" height="11.5"/>
	<rect x="226.4" y="125.6" class="st1" width="11.5" height="11.5"/>
	<rect x="226.4" y="114.1" class="st1" width="11.5" height="11.5"/>
	<rect x="226.4" y="102.6" class="st1" width="11.5" height="11.5"/>
	<rect x="226.4" y="91.2" class="st1" width="11.5" height="11.5"/>
	<rect x="226.4" y="79.7" class="st1" width="11.5" height="11.5"/>
	<rect x="226.4" y="68.2" class="st1" width="11.5" height="11.5"/>
	<rect x="226.4" y="56.8" class="st1" width="11.5" height="11.5"/>
	<rect x="226.4" y="45.3" class="st1" width="11.5" height="11.5"/>
	<rect x="226.4" y="33.8" class="st1" width="11.5" height="11.5"/>
	<rect x="226.4" y="22.3" class="st0" width="11.5" height="11.5"/>
	<rect x="226.4" y="10.9" class="st0" width="11.5" height="11.5"/>
	<rect x="214.9" y="320.6" class="st1" width="11.5" height="11.5"/>
	<rect x="214.9" y="309.2" class="st1" width="11.5" height="11.5"/>
	<rect x="214.9" y="297.7" class="st1" width="11.5" height="11.5"/>
	<rect x="214.9" y="286.2" class="st1" width="11.5" height="11.5"/>
	<rect x="214.9" y="274.7" class="st1" width="11.5" height="11.5"/>
	<rect x="214.9" y="263.3" class="st1" width="11.5" height="11.5"/>
	<rect x="214.9" y="251.8" class="st1" width="11.5" height="11.5"/>
	<rect x="214.9" y="240.3" class="st1" width="11.5" height="11.5"/>
	<rect x="214.9" y="228.8" class="st1" width="11.5" height="11.5"/>
	<rect x="214.9" y="217.4" class="st1" width="11.5" height="11.5"/>
	<rect x="214.9" y="205.9" class="st1" width="11.5" height="11.5"/>
	<rect x="214.9" y="194.4" class="st1" width="11.5" height="11.5"/>
	<rect x="214.9" y="183" class="st1" width="11.5" height="11.5"/>
	<rect x="214.9" y="171.5" class="st1" width="11.5" height="11.5"/>
	<rect x="214.9" y="160" class="st1" width="11.5" height="11.5"/>
	<rect x="214.9" y="148.5" class="st0" width="11.5" height="11.5"/>
	<rect x="214.9" y="137.1" class="st0" width="11.5" height="11.5"/>
	<rect x="214.9" y="125.6" class="st1" width="11.5" height="11.5"/>
	<rect x="214.9" y="114.1" class="st1" width="11.5" height="11.5"/>
	<rect x="214.9" y="102.6" class="st1" width="11.5" height="11.5"/>
	<rect x="214.9" y="91.2" class="st1" width="11.5" height="11.5"/>
	<rect x="214.9" y="79.7" class="st1" width="11.5" height="11.5"/>
	<rect x="214.9" y="68.2" class="st1" width="11.5" height="11.5"/>
	<rect x="214.9" y="56.8" class="st1" width="11.5" height="11.5"/>
	<rect x="214.9" y="45.3" class="st1" width="11.5" height="11.5"/>
	<rect x="214.9" y="33.8" class="st1" width="11.5" height="11.5"/>
	<rect x="214.9" y="22.3" class="st1" width="11.5" height="11.5"/>
	<rect x="214.9" y="10.9" class="st0" width="11.5" height="11.5"/>
	<rect x="214.9" y="-0.6" class="st0" width="11.5" height="11.5"/>
	<rect x="203.4" y="332.1" class="st1" width="11.5" height="11.5"/>
	<rect x="203.4" y="320.6" class="st1" width="11.5" height="11.5"/>
	<rect x="203.4" y="309.2" class="st1" width="11.5" height="11.5"/>
	<rect x="203.4" y="297.7" class="st1" width="11.5" height="11.5"/>
	<rect x="203.4" y="286.2" class="st1" width="11.5" height="11.5"/>
	<rect x="203.4" y="274.7" class="st1" width="11.5" height="11.5"/>
	<rect x="203.4" y="263.3" class="st1" width="11.5" height="11.5"/>
	<rect x="203.4" y="251.8" class="st1" width="11.5" height="11.5"/>
	<rect x="203.4" y="240.3" class="st1" width="11.5" height="11.5"/>
	<rect x="203.4" y="228.8" class="st1" width="11.5" height="11.5"/>
	<rect x="203.4" y="217.4" class="st1" width="11.5" height="11.5"/>
	<rect x="203.4" y="205.9" class="st1" width="11.5" height="11.5"/>
	<rect x="203.4" y="194.4" class="st1" width="11.5" height="11.5"/>
	<rect x="203.4" y="183" class="st1" width="11.5" height="11.5"/>
	<rect x="203.4" y="171.5" class="st1" width="11.5" height="11.5"/>
	<rect x="203.4" y="160" class="st1" width="11.5" height="11.5"/>
	<rect x="203.4" y="148.5" class="st0" width="11.5" height="11.5"/>
	<rect x="203.4" y="137.1" class="st0" width="11.5" height="11.5"/>
	<rect x="203.4" y="125.6" class="st1" width="11.5" height="11.5"/>
	<rect x="203.4" y="114.1" class="st1" width="11.5" height="11.5"/>
	<rect x="203.4" y="102.6" class="st1" width="11.5" height="11.5"/>
	<rect x="203.4" y="91.2" class="st1" width="11.5" height="11.5"/>
	<rect x="203.4" y="79.7" class="st1" width="11.5" height="11.5"/>
	<rect x="203.4" y="68.2" class="st1" width="11.5" height="11.5"/>
	<rect x="203.4" y="56.8" class="st1" width="11.5" height="11.5"/>
	<rect x="203.4" y="45.3" class="st1" width="11.5" height="11.5"/>
	<rect x="203.4" y="33.8" class="st1" width="11.5" height="11.5"/>
	<rect x="203.4" y="22.3" class="st1" width="11.5" height="11.5"/>
	<rect x="203.4" y="10.9" class="st1" width="11.5" height="11.5"/>
	<rect x="203.4" y="-0.6" class="st0" width="11.5" height="11.5"/>
	<rect x="192" y="332.1" class="st1" width="11.5" height="11.5"/>
	<rect x="192" y="320.6" class="st1" width="11.5" height="11.5"/>
	<rect x="192" y="309.2" class="st1" width="11.5" height="11.5"/>
	<rect x="192" y="297.7" class="st1" width="11.5" height="11.5"/>
	<rect x="192" y="286.2" class="st1" width="11.5" height="11.5"/>
	<rect x="192" y="274.7" class="st1" width="11.5" height="11.5"/>
	<rect x="192" y="263.3" class="st1" width="11.5" height="11.5"/>
	<rect x="192" y="251.8" class="st1" width="11.5" height="11.5"/>
	<rect x="192" y="240.3" class="st1" width="11.5" height="11.5"/>
	<rect x="192" y="228.8" class="st1" width="11.5" height="11.5"/>
	<rect x="192" y="217.4" class="st1" width="11.5" height="11.5"/>
	<rect x="192" y="205.9" class="st1" width="11.5" height="11.5"/>
	<rect x="192" y="194.4" class="st1" width="11.5" height="11.5"/>
	<rect x="192" y="183" class="st1" width="11.5" height="11.5"/>
	<rect x="192" y="171.5" class="st1" width="11.5" height="11.5"/>
	<rect x="192" y="160" class="st1" width="11.5" height="11.5"/>
	<rect x="192" y="148.5" class="st0" width="11.5" height="11.5"/>
	<rect x="192" y="137.1" class="st0" width="11.5" height="11.5"/>
	<rect x="192" y="125.6" class="st1" width="11.5" height="11.5"/>
	<rect x="192" y="114.1" class="st1" width="11.5" height="11.5"/>
	<rect x="192" y="102.6" class="st1" width="11.5" height="11.5"/>
	<rect x="192" y="91.2" class="st1" width="11.5" height="11.5"/>
	<rect x="192" y="79.7" class="st1" width="11.5" height="11.5"/>
	<rect x="192" y="68.2" class="st1" width="11.5" height="11.5"/>
	<rect x="192" y="56.8" class="st1" width="11.5" height="11.5"/>
	<rect x="192" y="45.3" class="st1" width="11.5" height="11.5"/>
	<rect x="192" y="33.8" class="st1" width="11.5" height="11.5"/>
	<rect x="192" y="22.3" class="st2" width="11.5" height="11.5"/>
	<rect x="192" y="10.9" class="st1" width="11.5" height="11.5"/>
	<rect x="192" y="-0.6" class="st0" width="11.5" height="11.5"/>
	<rect x="180.5" y="320.6" class="st2" width="11.5" height="11.5"/>
	<rect x="180.5" y="309.2" class="st2" width="11.5" height="11.5"/>
	<rect x="180.5" y="297.7" class="st2" width="11.5" height="11.5"/>
	<rect x="180.5" y="286.2" class="st2" width="11.5" height="11.5"/>
	<rect x="180.5" y="274.7" class="st2" width="11.5" height="11.5"/>
	<rect x="180.5" y="263.3" class="st2" width="11.5" height="11.5"/>
	<rect x="180.5" y="251.8" class="st2" width="11.5" height="11.5"/>
	<rect x="180.5" y="240.3" class="st2" width="11.5" height="11.5"/>
	<rect x="180.5" y="228.8" class="st2" width="11.5" height="11.5"/>
	<rect x="180.5" y="217.4" class="st2" width="11.5" height="11.5"/>
	<rect x="180.5" y="205.9" class="st2" width="11.5" height="11.5"/>
	<rect x="180.5" y="194.4" class="st2" width="11.5" height="11.5"/>
	<rect x="180.5" y="183" class="st2" width="11.5" height="11.5"/>
	<rect x="180.5" y="171.5" class="st2" width="11.5" height="11.5"/>
	<rect x="180.5" y="160" class="st2" width="11.5" height="11.5"/>
	<rect x="180.5" y="148.5" class="st0" width="11.5" height="11.5"/>
	<rect x="180.5" y="137.1" class="st0" width="11.5" height="11.5"/>
	<rect x="180.5" y="125.6" class="st1" width="11.5" height="11.5"/>
	<rect x="180.5" y="114.1" class="st1" width="11.5" height="11.5"/>
	<rect x="180.5" y="102.6" class="st1" width="11.5" height="11.5"/>
	<rect x="180.5" y="91.2" class="st1" width="11.5" height="11.5"/>
	<rect x="180.5" y="79.7" class="st1" width="11.5" height="11.5"/>
	<rect x="180.5" y="68.2" class="st1" width="11.5" height="11.5"/>
	<rect x="180.5" y="56.8" class="st2" width="11.5" height="11.5"/>
	<rect x="180.5" y="45.3" class="st2" width="11.5" height="11.5"/>
	<rect x="180.5" y="33.8" class="st2" width="11.5" height="11.5"/>
	<rect x="180.5" y="22.3" class="st1" width="11.5" height="11.5"/>
	<rect x="180.5" y="10.9" class="st0" width="11.5" height="11.5"/>
	<rect x="180.5" y="-0.6" class="st0" width="11.5" height="11.5"/>
	<rect x="169" y="148.5" class="st0" width="11.5" height="11.5"/>
	<rect x="169" y="137.1" class="st0" width="11.5" height="11.5"/>
	<rect x="169" y="125.6" class="st1" width="11.5" height="11.5"/>
	<rect x="169" y="114.1" class="st1" width="11.5" height="11.5"/>
	<rect x="169" y="102.6" class="st1" width="11.5" height="11.5"/>
	<rect x="169" y="91.2" class="st2" width="11.5" height="11.5"/>
	<rect x="169" y="79.7" class="st2" width="11.5" height="11.5"/>
	<rect x="169" y="68.2" class="st2" width="11.5" height="11.5"/>
	<rect x="169" y="56.8" class="st2" width="11.5" height="11.5"/>
	<rect x="169" y="45.3" class="st1" width="11.5" height="11.5"/>
	<rect x="169" y="33.8" class="st1" width="11.5" height="11.5"/>
	<rect x="169" y="22.3" class="st0" width="11.5" height="11.5"/>
	<rect x="169" y="10.9" class="st0" width="11.5" height="11.5"/>
	<rect x="157.5" y="148.5" class="st0" width="11.5" height="11.5"/>
	<rect x="157.5" y="137.1" class="st0" width="11.5" height="11.5"/>
	<rect x="157.5" y="125.6" class="st1" width="11.5" height="11.5"/>
	<rect x="157.5" y="114.1" class="st1" width="11.5" height="11.5"/>
	<rect x="157.5" y="102.6" class="st2" width="11.5" height="11.5"/>
	<rect x="157.5" y="91.2" class="st2" width="11.5" height="11.5"/>
	<rect x="157.5" y="79.7" class="st2" width="11.5" height="11.5"/>
	<rect x="157.5" y="68.2" class="st1" width="11.5" height="11.5"/>
	<rect x="157.5" y="56.8" class="st1" width="11.5" height="11.5"/>
	<rect x="157.5" y="45.3" class="st0" width="11.5" height="11.5"/>
	<rect x="157.5" y="33.8" class="st0" width="11.5" height="11.5"/>
	<rect x="157.5" y="22.3" class="st0" width="11.5" height="11.5"/>
	<rect x="146.1" y="137.1" class="st0" width="11.5" height="11.5"/>
	<rect x="146.1" y="125.6" class="st0" width="11.5" height="11.5"/>
	<rect x="146.1" y="114.1" class="st1" width="11.5" height="11.5"/>
	<rect x="146.1" y="102.6" class="st1" width="11.5" height="11.5"/>
	<rect x="146.1" y="91.2" class="st1" width="11.5" height="11.5"/>
	<rect x="146.1" y="79.7" class="st1" width="11.5" height="11.5"/>
	<rect x="146.1" y="68.2" class="st0" width="11.5" height="11.5"/>
	<rect x="146.1" y="56.8" class="st0" width="11.5" height="11.5"/>
	<rect x="146.1" y="45.3" class="st0" width="11.5" height="11.5"/>
	<rect x="134.6" y="125.6" class="st0" width="11.5" height="11.5"/>
	<rect x="134.6" y="114.1" class="st0" width="11.5" height="11.5"/>
	<rect x="134.6" y="102.6" class="st0" width="11.5" height="11.5"/>
	<rect x="134.6" y="91.2" class="st0" width="11.5" height="11.5"/>
	<rect x="134.6" y="79.7" class="st0" width="11.5" height="11.5"/>
	<rect x="134.6" y="68.2" class="st0" width="11.5" height="11.5"/>
</g>
</svg>
