<?xml version="1.0" encoding="utf-8"?>
<!-- Generator: Adobe Illustrator 25.2.0, SVG Export Plug-In . SVG Version: 6.00 Build 0)  -->
<svg version="1.1" id="Layer_1" xmlns="http://www.w3.org/2000/svg" xmlns:xlink="http://www.w3.org/1999/xlink" x="0px" y="0px"
	 viewBox="0 0 242.2 26.6" style="enable-background:new 0 0 242.2 26.6;" xml:space="preserve">
<style type="text/css">
	.st0{fill:#FFFFFF;}
</style>
<g>
	<path class="st0" d="M2.5,4.9L4.7,11l2.5-5.8L9.7,11l2.2-6.1h2.4L9.9,17.2l-2.7-6.3l-2.7,6.3L0.1,4.9H2.5z M2.9,4.3l1.8,5.2
		l0.4-0.9L4,5.4L2.9,4.3z M8,14l-0.8-1.8l-2.8,6.5l1.1,1.1L8,14z M7.2,3.8l2.5,5.7l0.3-0.8L8.3,4.9L7.2,3.8z M15.1,4.3L10,18.7
		l1.1,1.1l5.1-14.4L15.1,4.3z"/>
	<path class="st0" d="M21.8,19.1h-3.4L17.3,18h3.4v-5.3h3.2v1.1h-2.1V19.1z M20.1,17.5v-5.3h4.3v5.3h2.3V4.9h-2.3v5.3h-4.3V4.9h-2.3
		v12.6H20.1z M20.7,4.3l1.1,1.1v4.2h-1.1V4.3z M28.4,19.1V5.4l-1.1-1.1V18h-3.4l1.1,1.1H28.4z"/>
	<path class="st0" d="M43.5,11.3c0,2-0.7,3.7-2.1,4.9c-1.3,1.1-2.8,1.6-4.7,1.6c-1.8,0-3.4-0.5-4.7-1.6c-1.4-1.2-2.1-2.8-2.1-4.9
		c0-2.1,0.7-3.7,2.1-4.9c1.3-1.1,2.8-1.6,4.7-1.6c1.8,0,3.4,0.5,4.7,1.6C42.8,7.6,43.5,9.2,43.5,11.3z M42.3,6.4
		c0.8,0.9,1.4,2,1.6,3.2c0.4,1.9,0.1,3.6-0.7,5C42.5,16,41.4,17,40,17.6c-1.4,0.6-2.9,0.8-4.5,0.6c-1.6-0.3-3-0.9-4.2-2.1l1.1,1.1
		c1.1,1,2.3,1.7,3.9,2c1.5,0.3,2.9,0.2,4.3-0.3c1.4-0.5,2.6-1.4,3.4-2.5c0.9-1.3,1.3-2.9,1.2-4.7c-0.1-1.2-0.4-2.2-0.9-3
		C43.9,8.2,43.3,7.4,42.3,6.4z M32.5,11.3c0,1.4,0.4,2.5,1.3,3.4c0.8,0.8,1.8,1.1,2.9,1.1c1.2,0,2.1-0.4,2.9-1.1
		c0.9-0.8,1.3-2,1.3-3.4c0-1.4-0.4-2.5-1.3-3.4c-0.8-0.8-1.8-1.1-2.9-1.1c-1.1,0-2.1,0.4-2.9,1.1C32.9,8.7,32.5,9.9,32.5,11.3z
		 M40.3,9.3c-0.5-0.5-1.1-0.8-1.6-0.9c-1-0.2-1.8-0.1-2.6,0.3c-0.7,0.4-1.2,0.9-1.6,1.7c-0.4,0.8-0.5,1.5-0.4,2.4
		c0.1,0.9,0.4,1.6,1,2.3L34.1,14c-0.9-1-1.2-2.2-0.9-3.8c0.3-1.6,1.2-2.6,2.7-2.9c1-0.2,1.9-0.1,2.7,0.4c0.3,0.2,1,0.8,1.9,1.7
		L40.3,9.3z"/>
	<path class="st0" d="M56.6,18l-0.5,1.1h-3.7L51.4,18h3.7l0.5-1.1h4.2l0.5,1.1H56.6z M60.6,17.5l-0.5-1.1h-4.9l-0.5,1.1h-2.5l5.4-12
		l5.4,12H60.6z M59.7,14.9l-2.1-4.7l-2,4.7H59.7z M58.4,13.3l-0.4,1h-1.6l1.2-2.8L58.4,13.3z M61.3,19.1H65L58.7,5.3l-1.1-1.1
		L63.9,18h-3.7L61.3,19.1z"/>
	<path class="st0" d="M70.6,19.1h-3.4L66.1,18h3.4v-4.4l1.1,1.3V19.1z M75.9,17.5l-3.8-4.7l0.7-0.3c1-0.4,1.7-1,2.1-1.8
		c0.4-0.8,0.5-1.7,0.3-2.6c-0.2-0.9-0.6-1.7-1.3-2.3c-0.7-0.7-1.7-1-2.9-1h-4.5v12.6H69v-5.4l4.4,5.4H75.9z M69,11.1V6.9h2.1
		c0.6,0,1.1,0.2,1.5,0.7C72.8,8,73,8.5,73,9c0,0.6-0.1,1-0.4,1.4c-0.4,0.5-0.9,0.7-1.5,0.7H69z M72.2,8.5h-1.6v2.1h-1.1V7.4h1.6
		c0.3,0,0.6,0.1,0.9,0.3c0.2,0.2,0.4,0.5,0.5,0.8C72.3,8.5,72.2,8.5,72.2,8.5z M78.4,19.1l-4.1-5c0.9-0.4,1.6-1,2.1-1.8
		c0.5-0.8,0.6-1.7,0.5-2.7c-0.1-0.8-0.3-1.5-0.7-2C76,7.2,75.6,6.7,74.8,6c0.5,0.7,0.8,1.4,1,2.3s0,1.7-0.3,2.5
		c-0.5,1.1-1.3,1.9-2.5,2.3l4,5h-4l1.1,1.1H78.4z"/>
	<path class="st0" d="M80.2,19.1L79.1,18h8.6v-3.1l1.1,1.1v3.1H80.2z M86.4,12.2H82v3.3h5.2v2h-7.5V4.9h7.3v2H82v3.3h4.4V12.2z
		 M83.6,9.6h-1.1V7.4h4.9V4.3l1.1,1.1v3.1h-4.9V9.6z M87,12.7h-4.4v2.2h1.1v-1.2h4.4v-3.1L87,9.6V12.7z"/>
	<path class="st0" d="M106.1,16.6c-0.9,0.6-1.9,1-3,1.1c-1.2,0.1-2.4,0-3.6-0.6c-1.2-0.5-2.1-1.3-2.8-2.3c-0.7-1.1-1.1-2.3-1.1-3.6
		c0-1.4,0.4-2.6,1.1-3.6c0.7-1,1.6-1.8,2.8-2.3s2.4-0.7,3.6-0.6c1.1,0.1,2.1,0.5,3,1.1l-1.5,1.5c-0.6-0.4-1.2-0.6-1.9-0.7
		c-0.8-0.1-1.6,0.1-2.3,0.4c-0.7,0.4-1.3,0.9-1.7,1.6c-0.5,0.7-0.7,1.5-0.7,2.4c0,0.9,0.2,1.7,0.7,2.4c0.4,0.7,1,1.2,1.7,1.6
		c0.7,0.4,1.5,0.5,2.3,0.5c0.7-0.1,1.3-0.3,1.9-0.7L106.1,16.6z M106.9,16.6c-1.3,1-2.7,1.6-4.3,1.7c-1.5,0.1-3-0.3-4.5-1.2l1.3,1.2
		c1.4,0.8,2.8,1.2,4.4,1.1c1.5-0.1,2.9-0.7,4.2-1.7L106.9,16.6z M100.3,14.6c-0.6-0.6-0.8-1.4-0.8-2.3c0-0.9,0.3-1.7,0.9-2.4
		c0.6-0.8,1.3-1.3,2.1-1.5c0.9-0.2,1.9-0.1,2.8,0.6l0.3,0.3L108,7l-1.1-1l0,0l-2.3,2.2c-0.5-0.5-1.2-0.8-2-0.9
		c-1-0.1-1.9,0.2-2.7,0.8c-0.8,0.7-1.3,1.5-1.4,2.6c0,0.2,0,0.3,0,0.5c0,0.8,0.2,1.5,0.6,2.2C99.4,13.9,99.8,14.3,100.3,14.6z"/>
	<path class="st0" d="M122.6,11.3c0,2-0.7,3.7-2.1,4.9c-1.3,1.1-2.8,1.6-4.7,1.6c-1.8,0-3.4-0.5-4.7-1.6c-1.4-1.2-2.1-2.8-2.1-4.9
		c0-2.1,0.7-3.7,2.1-4.9c1.3-1.1,2.8-1.6,4.7-1.6c1.8,0,3.4,0.5,4.7,1.6C121.9,7.6,122.6,9.2,122.6,11.3z M121.4,6.4
		c0.8,0.9,1.4,2,1.6,3.2c0.4,1.9,0.2,3.6-0.7,5c-0.7,1.3-1.8,2.3-3.3,2.9c-1.4,0.6-2.9,0.8-4.5,0.6c-1.6-0.3-3-0.9-4.2-2.1l1.1,1.1
		c1.1,1,2.3,1.7,3.9,2c1.5,0.3,2.9,0.2,4.3-0.3c1.4-0.5,2.6-1.4,3.4-2.5c0.9-1.3,1.3-2.9,1.2-4.7c-0.1-1.2-0.4-2.2-0.9-3
		C123,8.2,122.4,7.4,121.4,6.4z M111.6,11.3c0,1.4,0.4,2.5,1.3,3.4c0.8,0.8,1.8,1.1,2.9,1.1c1.2,0,2.1-0.4,2.9-1.1
		c0.9-0.8,1.3-2,1.3-3.4c0-1.4-0.4-2.5-1.3-3.4c-0.8-0.8-1.8-1.1-2.9-1.1c-1.1,0-2.1,0.4-2.9,1.1C112,8.7,111.6,9.9,111.6,11.3z
		 M119.4,9.3c-0.5-0.5-1.1-0.8-1.6-0.9c-1-0.2-1.8-0.1-2.6,0.3c-0.7,0.4-1.2,0.9-1.6,1.7c-0.4,0.8-0.5,1.5-0.4,2.4
		c0.1,0.9,0.4,1.6,1,2.3l-1.1-1.1c-0.9-1-1.2-2.2-0.9-3.8c0.3-1.6,1.2-2.6,2.7-2.9c1-0.2,1.9-0.1,2.7,0.4c0.3,0.2,1,0.8,1.9,1.7
		L119.4,9.3z"/>
	<path class="st0" d="M133.5,9.6l1.1,1.1v3.1h-4.2v5.3H127l-1.1-1.1h3.4v-5.3h4.2V9.6z M132.9,10.2h-4.2V6.9h4.7v-2h-7v12.6h2.3
		v-5.3h4.2V10.2z M130.4,8.5h4.7V5.4L134,4.3v3.1h-4.7v2.2h1.1V8.5z"/>
	<path class="st0" d="M144,9.6l1.1,1.1v3.1h-4.2v5.3h-3.4l-1.1-1.1h3.4v-5.3h4.2V9.6z M143.4,10.2h-4.2V6.9h4.7v-2h-7v12.6h2.3v-5.3
		h4.2V10.2z M140.9,8.5h4.7V5.4l-1.1-1.1v3.1h-4.7v2.2h1.1V8.5z"/>
	<path class="st0" d="M148,19.1l-1.1-1.1h8.6v-3.1l1.1,1.1v3.1H148z M154.2,12.2h-4.4v3.3h5.2v2h-7.5V4.9h7.3v2h-4.9v3.3h4.4V12.2z
		 M151.4,9.6h-1.1V7.4h4.9V4.3l1.1,1.1v3.1h-4.9V9.6z M154.7,12.7h-4.4v2.2h1.1v-1.2h4.4v-3.1l-1.1-1.1V12.7z"/>
	<path class="st0" d="M159.3,19.1l-1.1-1.1h8.6v-3.1L168,16v3.1H159.3z M165.6,12.2h-4.4v3.3h5.2v2h-7.5V4.9h7.3v2h-4.9v3.3h4.4
		V12.2z M162.8,9.6h-1.1V7.4h4.9V4.3l1.1,1.1v3.1h-4.9V9.6z M166.1,12.7h-4.4v2.2h1.1v-1.2h4.4v-3.1l-1.1-1.1V12.7z"/>
	<path class="st0" d="M179.7,19.1h-3.4l-1.1-1.1h3.4v-3.4h1.9c0.7,0,1.3-0.1,1.9-0.3c1.3-0.4,2.3-1.3,2.9-2.7
		c0.4-0.9,0.6-1.8,0.4-2.8c-0.1-1-0.5-1.9-1.3-2.7c0.9,0.9,1.5,1.6,1.8,2.1c0.5,0.8,0.7,1.8,0.6,2.8c-0.1,1.3-0.7,2.4-1.7,3.3
		c-1,0.9-2.2,1.3-3.6,1.3h-1.9V19.1z M175.7,17.5V4.9h4.8c1.3,0,2.5,0.5,3.4,1.4c0.9,0.9,1.3,2,1.3,3.2c0,1.2-0.4,2.3-1.3,3.2
		c-0.9,0.9-2.1,1.4-3.4,1.4H178v3.4H175.7z M180.5,12.1c0.6,0,1.2-0.2,1.7-0.7c0.5-0.5,0.8-1.1,0.8-1.9c0-0.7-0.3-1.4-0.8-1.9
		c-0.5-0.5-1-0.7-1.6-0.7H178v5.2H180.5z M182.2,8.6c-0.1-0.3-0.4-0.6-0.7-0.8c-0.3-0.2-0.7-0.4-1-0.4h-1.9v4.1h1.1v-3h1.9
		C181.8,8.5,182,8.5,182.2,8.6z"/>
	<path class="st0" d="M197.2,4.9v8.5c0,1.1-0.4,2.1-1.2,2.9c-0.9,0.9-1.9,1.3-3.2,1.3c-1.2,0-2.3-0.4-3.2-1.3
		c-0.8-0.8-1.2-1.8-1.2-2.9V4.9h2.3v8.5c0,0.6,0.2,1.2,0.7,1.6c0.4,0.4,0.9,0.6,1.4,0.6c0.5,0,1-0.2,1.4-0.6c0.4-0.4,0.7-1,0.7-1.6
		V4.9H197.2z M197.7,13.4c0,1-0.3,1.9-0.9,2.7c-0.3,0.4-0.7,0.8-1.1,1.2c-0.6,0.4-1.2,0.7-1.9,0.8c-0.6,0.1-1.3,0.1-1.9,0
		c-1-0.2-1.9-0.6-2.6-1.4l1.1,1.1c0.8,0.8,1.7,1.2,2.7,1.4c0.9,0.2,1.9,0.1,2.8-0.3c0.9-0.4,1.6-0.9,2.2-1.7
		c0.6-0.8,0.9-1.7,0.9-2.8V5.4l-1.1-1.1V13.4z M191.3,4.3l1.1,1.1l0,9.4l0.1,0.2c-0.2,0-0.4-0.1-0.6-0.3c-0.4-0.4-0.6-0.9-0.6-1.4
		V4.3z"/>
	<path class="st0" d="M204.3,18v-5.9l1.1,1.1v5.8h-3.4l-1.1-1.1H204.3z M202.6,4.7l5.9,5.3l0,0.5l-7-6.5L202.6,4.7z M208.8,4.9v6.5
		l-7.4-6.3v12.4h2.3V11l7.4,6.3V4.9H208.8z M211.7,4.3l1.1,1.1v14.1l-1.1-1.1V4.3z"/>
	<path class="st0" d="M219.3,19.1h-3.4l-1.1-1.1h3.4v-6.4l1.1,1.4V19.1z M217.7,17.5V4.9h-2.3v12.6H217.7z M218.2,4.3l1.1,1.1V9
		l-1.1,1.4V4.3z M223.5,17.5h2.8l-5.2-6.5l4.9-6.1h-2.8l-4.8,6.1L223.5,17.5z M224.3,19.1l-1.1-1.1h4.2l-5.6-7v0l5.3-6.7l1.1,1.1
		l-5,6.3l5.9,7.4H224.3z"/>
	<path class="st0" d="M237,8c-0.1-0.4-0.4-0.6-0.7-0.9c-0.4-0.3-0.9-0.4-1.5-0.4c-0.6,0-1.1,0.1-1.5,0.4c-0.5,0.3-0.8,0.8-0.8,1.4
		c0,0.7,0.5,1.2,1.5,1.5c0.2,0.1,0.6,0.2,1.2,0.3c0.6,0.1,1,0.2,1.3,0.3c1,0.3,1.7,0.7,2.2,1.1c0.6,0.6,0.9,1.3,0.9,2.3
		c0,1.2-0.5,2.1-1.5,2.8c-0.9,0.7-2.1,1-3.5,1c-1.4,0-2.5-0.3-3.5-1c-0.8-0.6-1.3-1.4-1.5-2.3l2.7-0.1c0.1,0.4,0.4,0.7,0.7,1
		c0.4,0.3,0.9,0.4,1.5,0.4c0.6,0,1.1-0.1,1.5-0.4c0.5-0.3,0.8-0.8,0.8-1.4c0-0.6-0.5-1.1-1.4-1.5c-0.2-0.1-0.6-0.2-1.2-0.4
		c-0.6-0.2-1-0.3-1.3-0.4c-1-0.3-1.8-0.7-2.3-1.2c-0.6-0.6-0.9-1.3-0.9-2.2c0-1.2,0.5-2.1,1.4-2.8c0.9-0.7,2-1,3.4-1
		c1.3,0,2.5,0.3,3.4,0.9c0.8,0.5,1.2,1.2,1.4,2.1L237,8z M234,13.4l2.4,0.7c0-0.3-0.2-0.6-0.6-0.9c-0.3-0.2-0.8-0.4-1.6-0.6
		c-1.9-0.6-3.2-1.1-3.8-1.7c0.8,0.8,1.3,1.3,1.6,1.5C232.5,12.8,233.1,13.1,234,13.4z M231.9,18.4l-1.4-1.3c0.9,0.7,2,1.1,3.3,1.3
		c1.3,0.1,2.4,0,3.5-0.5c1.1-0.4,1.9-1.1,2.4-2c0.5-1,0.6-2,0.2-3.1l-0.5-0.9c0.7,0.8,1.2,1.3,1.4,1.5c0.3,0.6,0.5,1.3,0.4,2.1
		c0,0.9-0.4,1.8-1.1,2.4c-0.6,0.6-1.4,1.1-2.4,1.3c-1,0.3-2,0.3-3,0.2C233.7,19.2,232.7,18.9,231.9,18.4z M232.8,13.8l1.1,1.3
		C233.3,15,232.9,14.5,232.8,13.8z M236.5,8.4c-0.1-0.3-0.2-0.6-0.5-0.8c-0.4-0.3-0.9-0.4-1.4-0.3c-0.5,0-0.9,0.2-1.2,0.5
		c-0.3,0.3-0.4,0.6-0.3,0.9c0.1,0.4,0.5,0.6,1.1,0.8c0-0.4,0.3-0.8,0.8-1C235.5,8.3,236,8.2,236.5,8.4z M236.9,8.5l-0.4,0l1.1,1.1
		l3.5-0.3c0-0.8-0.2-1.4-0.6-1.9c-0.2-0.4-0.6-0.8-1.2-1.2c0.4,0.6,0.7,1.3,0.7,2.1L236.9,8.5z"/>
</g>
</svg>
