<?xml version="1.0" encoding="utf-8"?>
<!-- Generator: Adobe Illustrator 25.2.0, SVG Export Plug-In . SVG Version: 6.00 Build 0)  -->
<svg version="1.1" id="palm_trees_Image" xmlns="http://www.w3.org/2000/svg" xmlns:xlink="http://www.w3.org/1999/xlink" x="0px"
	 y="0px" viewBox="0 0 190.8 260.6" style="enable-background:new 0 0 190.8 260.6;" xml:space="preserve">
<style type="text/css">
	.st0{fill:none;}
	.st1{fill:#C0CCDC;}
	.st2{fill:#8B9BB5;}
	.st3{fill:#5B6986;}
</style>
<rect x="-17" y="10.6" class="st0" width="207.8" height="250.1"/>
<rect x="80.2" y="131.8" transform="matrix(0.9622 -0.2725 0.2725 0.9622 -33.9687 28.2906)" class="st1" width="9.3" height="9.3"/>
<rect x="77.7" y="122.8" transform="matrix(0.9622 -0.2725 0.2725 0.9622 -31.6109 27.2617)" class="st1" width="9.3" height="9.3"/>
<rect x="75.2" y="113.9" transform="matrix(0.9622 -0.2725 0.2725 0.9622 -29.2784 26.244)" class="st1" width="9.3" height="9.3"/>
<rect x="72.6" y="105" transform="matrix(0.9622 -0.2725 0.2725 0.9622 -26.9569 25.2011)" class="st1" width="9.3" height="9.3"/>
<rect x="70.1" y="96.1" transform="matrix(0.9622 -0.2725 0.2725 0.9622 -24.6242 24.1835)" class="st1" width="9.3" height="9.3"/>
<rect x="67.6" y="87.2" transform="matrix(0.9622 -0.2725 0.2725 0.9622 -22.2915 23.1659)" class="st1" width="9.3" height="9.3"/>
<rect x="91.6" y="138.1" transform="matrix(0.9622 -0.2725 0.2725 0.9622 -35.2583 31.6298)" class="st1" width="9.3" height="9.3"/>
<rect x="89.1" y="129.2" transform="matrix(0.9622 -0.2725 0.2725 0.9622 -32.9258 30.6121)" class="st1" width="9.3" height="9.3"/>
<rect x="86.6" y="120.3" transform="matrix(0.9622 -0.2725 0.2725 0.9622 -30.5932 29.5943)" class="st2" width="9.3" height="9.3"/>
<rect x="84.1" y="111.4" transform="matrix(0.9622 -0.2725 0.2725 0.9622 -28.2606 28.5766)" class="st2" width="9.3" height="9.3"/>
<rect x="81.5" y="102.5" transform="matrix(0.9622 -0.2725 0.2725 0.9622 -25.9391 27.5336)" class="st2" width="9.3" height="9.3"/>
<rect x="79" y="93.6" transform="matrix(0.9622 -0.2725 0.2725 0.9622 -23.6064 26.5161)" class="st2" width="9.3" height="9.3"/>
<rect x="76.5" y="84.7" transform="matrix(0.9622 -0.2725 0.2725 0.9622 -21.2737 25.4985)" class="st1" width="9.3" height="9.3"/>
<rect x="74" y="75.8" transform="matrix(0.9622 -0.2725 0.2725 0.9622 -18.9412 24.4808)" class="st1" width="9.3" height="9.3"/>
<rect x="71.5" y="66.8" transform="matrix(0.9622 -0.2725 0.2725 0.9622 -16.5834 23.452)" class="st1" width="9.3" height="9.3"/>
<rect x="103.1" y="144.5" transform="matrix(0.9622 -0.2725 0.2725 0.9622 -36.5622 35.0051)" class="st1" width="9.3" height="9.3"/>
<rect x="100.6" y="135.6" transform="matrix(0.9622 -0.2725 0.2725 0.9622 -34.2295 33.9876)" class="st1" width="9.3" height="9.3"/>
<rect x="98" y="126.7" transform="matrix(0.9622 -0.2725 0.2725 0.9622 -31.908 32.9446)" class="st2" width="9.3" height="9.3"/>
<rect x="95.5" y="117.8" transform="matrix(0.9622 -0.2725 0.2725 0.9622 -29.5754 31.9269)" class="st2" width="9.3" height="9.3"/>
<rect x="93" y="108.9" transform="matrix(0.9622 -0.2725 0.2725 0.9622 -27.2429 30.9091)" class="st2" width="9.3" height="9.3"/>
<rect x="90.5" y="100" transform="matrix(0.9622 -0.2725 0.2725 0.9622 -24.9103 29.8914)" class="st2" width="9.3" height="9.3"/>
<rect x="87.9" y="91.1" transform="matrix(0.9622 -0.2725 0.2725 0.9622 -22.5887 28.8487)" class="st2" width="9.3" height="9.3"/>
<rect x="85.4" y="82.1" transform="matrix(0.9622 -0.2725 0.2725 0.9622 -20.2308 27.82)" class="st2" width="9.3" height="9.3"/>
<rect x="82.9" y="73.2" transform="matrix(0.9622 -0.2725 0.2725 0.9622 -17.8982 26.8023)" class="st2" width="9.3" height="9.3"/>
<rect x="80.4" y="64.3" transform="matrix(0.9622 -0.2725 0.2725 0.9622 -15.5657 25.7845)" class="st1" width="9.3" height="9.3"/>
<rect x="77.8" y="55.4" transform="matrix(0.9622 -0.2725 0.2725 0.9622 -13.2441 24.7416)" class="st1" width="9.3" height="9.3"/>
<rect x="75.3" y="46.5" transform="matrix(0.9622 -0.2725 0.2725 0.9622 -10.9116 23.7239)" class="st1" width="9.3" height="9.3"/>
<rect x="112" y="142" transform="matrix(0.9622 -0.2725 0.2725 0.9622 -35.5445 37.3377)" class="st1" width="9.3" height="9.3"/>
<rect x="109.5" y="133.1" transform="matrix(0.9622 -0.2725 0.2725 0.9622 -33.2118 36.3201)" class="st1" width="9.3" height="9.3"/>
<rect x="106.9" y="124.2" transform="matrix(0.9622 -0.2725 0.2725 0.9622 -30.8903 35.2772)" class="st2" width="9.3" height="9.3"/>
<rect x="104.4" y="115.3" transform="matrix(0.9622 -0.2725 0.2725 0.9622 -28.5577 34.2595)" class="st2" width="9.3" height="9.3"/>
<rect x="101.9" y="106.4" transform="matrix(0.9622 -0.2725 0.2725 0.9622 -26.2251 33.2417)" class="st2" width="9.3" height="9.3"/>
<rect x="99.4" y="97.4" transform="matrix(0.9622 -0.2725 0.2725 0.9622 -23.8674 32.2129)" class="st2" width="9.3" height="9.3"/>
<rect x="96.8" y="88.5" transform="matrix(0.9622 -0.2725 0.2725 0.9622 -21.5457 31.1702)" class="st2" width="9.3" height="9.3"/>
<rect x="94.3" y="79.6" transform="matrix(0.9622 -0.2725 0.2725 0.9622 -19.213 30.1526)" class="st2" width="9.3" height="9.3"/>
<rect x="91.8" y="70.7" transform="matrix(0.9622 -0.2725 0.2725 0.9622 -16.8805 29.1349)" class="st2" width="9.3" height="9.3"/>
<rect x="89.3" y="61.8" transform="matrix(0.9622 -0.2725 0.2725 0.9622 -14.5479 28.1171)" class="st2" width="9.3" height="9.3"/>
<rect x="86.8" y="52.9" transform="matrix(0.9622 -0.2725 0.2725 0.9622 -12.2153 27.0994)" class="st2" width="9.3" height="9.3"/>
<rect x="84.2" y="44" transform="matrix(0.9622 -0.2725 0.2725 0.9622 -9.8938 26.0564)" class="st1" width="9.3" height="9.3"/>
<rect x="81.7" y="35.1" transform="matrix(0.9622 -0.2725 0.2725 0.9622 -7.5612 25.0387)" class="st1" width="9.3" height="9.3"/>
<polygon class="st2" points="161.6,254.3 163.4,260.6 153.7,260.6 152.6,256.7 152.6,256.7 161.6,254.2 161.6,254.2 "/>
<rect x="151.2" y="246.4" transform="matrix(0.9622 -0.2725 0.2725 0.9622 -62.5099 51.9693)" class="st2" width="9.3" height="9.3"/>
<rect x="148.7" y="237.5" transform="matrix(0.9622 -0.2725 0.2725 0.9622 -60.1774 50.9515)" class="st2" width="9.3" height="9.3"/>
<rect x="146.1" y="228.6" transform="matrix(0.9622 -0.2725 0.2725 0.9622 -57.8559 49.9086)" class="st2" width="9.3" height="9.3"/>
<rect x="143.6" y="219.7" transform="matrix(0.9622 -0.2725 0.2725 0.9622 -55.5233 48.8909)" class="st2" width="9.3" height="9.3"/>
<rect x="141.1" y="210.8" transform="matrix(0.9622 -0.2725 0.2725 0.9622 -53.1907 47.8731)" class="st2" width="9.3" height="9.3"/>
<rect x="138.6" y="201.9" transform="matrix(0.9622 -0.2725 0.2725 0.9622 -50.858 46.8556)" class="st2" width="9.3" height="9.3"/>
<rect x="136" y="193" transform="matrix(0.9622 -0.2725 0.2725 0.9622 -48.5364 45.8128)" class="st2" width="9.3" height="9.3"/>
<rect x="133.5" y="184" transform="matrix(0.9622 -0.2725 0.2725 0.9622 -46.1786 44.784)" class="st2" width="9.3" height="9.3"/>
<rect x="131" y="175.1" transform="matrix(0.9622 -0.2725 0.2725 0.9622 -43.8461 43.7663)" class="st2" width="9.3" height="9.3"/>
<rect x="128.5" y="166.2" transform="matrix(0.9622 -0.2725 0.2725 0.9622 -41.5135 42.7485)" class="st2" width="9.3" height="9.3"/>
<rect x="125.9" y="157.3" transform="matrix(0.9622 -0.2725 0.2725 0.9622 -39.192 41.7056)" class="st2" width="9.3" height="9.3"/>
<rect x="123.4" y="148.4" transform="matrix(0.9622 -0.2725 0.2725 0.9622 -36.8594 40.6878)" class="st2" width="9.3" height="9.3"/>
<rect x="120.9" y="139.5" transform="matrix(0.9622 -0.2725 0.2725 0.9622 -34.5267 39.6703)" class="st1" width="9.3" height="9.3"/>
<rect x="118.4" y="130.6" transform="matrix(0.9622 -0.2725 0.2725 0.9622 -32.194 38.6527)" class="st1" width="9.3" height="9.3"/>
<rect x="115.9" y="121.7" transform="matrix(0.9622 -0.2725 0.2725 0.9622 -29.8615 37.635)" class="st2" width="9.3" height="9.3"/>
<rect x="113.3" y="112.7" transform="matrix(0.9622 -0.2725 0.2725 0.9622 -27.5148 36.581)" class="st2" width="9.3" height="9.3"/>
<rect x="110.8" y="103.8" transform="matrix(0.9622 -0.2725 0.2725 0.9622 -25.1822 35.5632)" class="st2" width="9.3" height="9.3"/>
<rect x="108.3" y="94.9" transform="matrix(0.9622 -0.2725 0.2725 0.9622 -22.8496 34.5455)" class="st2" width="9.3" height="9.3"/>
<rect x="105.8" y="86" transform="matrix(0.9622 -0.2725 0.2725 0.9622 -20.5169 33.5279)" class="st2" width="9.3" height="9.3"/>
<rect x="103.2" y="77.1" transform="matrix(0.9622 -0.2725 0.2725 0.9622 -18.1953 32.4852)" class="st2" width="9.3" height="9.3"/>
<rect x="100.7" y="68.2" transform="matrix(0.9622 -0.2725 0.2725 0.9622 -15.8627 31.4674)" class="st2" width="9.3" height="9.3"/>
<rect x="98.2" y="59.3" transform="matrix(0.9622 -0.2725 0.2725 0.9622 -13.5301 30.4497)" class="st2" width="9.3" height="9.3"/>
<rect x="95.7" y="50.4" transform="matrix(0.9622 -0.2725 0.2725 0.9622 -11.1976 29.4319)" class="st2" width="9.3" height="9.3"/>
<rect x="93.1" y="41.4" transform="matrix(0.9622 -0.2725 0.2725 0.9622 -8.8509 28.3779)" class="st2" width="9.3" height="9.3"/>
<rect x="90.6" y="32.5" transform="matrix(0.9622 -0.2725 0.2725 0.9622 -6.5183 27.3602)" class="st1" width="9.3" height="9.3"/>
<rect x="88.1" y="23.6" transform="matrix(0.9622 -0.2725 0.2725 0.9622 -4.1856 26.3426)" class="st1" width="9.3" height="9.3"/>
<polygon class="st2" points="173,260.6 172.9,260.6 172.9,260.6 173,260.6 173,260.6 173,260.7 173,260.7 173,260.7 173,260.7 "/>
<polygon class="st2" points="173,260.6 173,260.7 173,260.7 173,260.7 173,260.6 163.3,260.6 161.5,254.3 161.5,254.2 161.6,254.2 
	161.6,254.2 170.5,251.7 170.5,251.7 "/>
<rect x="160.1" y="243.9" transform="matrix(0.9622 -0.2725 0.2725 0.9622 -61.4922 54.3019)" class="st2" width="9.3" height="9.3"/>
<rect x="157.6" y="235" transform="matrix(0.9622 -0.2725 0.2725 0.9622 -59.1596 53.2841)" class="st2" width="9.3" height="9.3"/>
<rect x="155.1" y="226.1" transform="matrix(0.9622 -0.2725 0.2725 0.9622 -56.8271 52.2664)" class="st2" width="9.3" height="9.3"/>
<rect x="152.5" y="217.2" transform="matrix(0.9622 -0.2725 0.2725 0.9622 -54.5055 51.2234)" class="st2" width="9.3" height="9.3"/>
<rect x="150" y="208.3" transform="matrix(0.9622 -0.2725 0.2725 0.9622 -52.173 50.2057)" class="st2" width="9.3" height="9.3"/>
<rect x="147.5" y="199.3" transform="matrix(0.9622 -0.2725 0.2725 0.9622 -49.8151 49.1771)" class="st2" width="9.3" height="9.3"/>
<rect x="145" y="190.4" transform="matrix(0.9622 -0.2725 0.2725 0.9622 -47.4824 48.1595)" class="st2" width="9.3" height="9.3"/>
<rect x="142.4" y="181.5" transform="matrix(0.9622 -0.2725 0.2725 0.9622 -45.1609 47.1166)" class="st2" width="9.3" height="9.3"/>
<rect x="139.9" y="172.6" transform="matrix(0.9622 -0.2725 0.2725 0.9622 -42.8283 46.0988)" class="st2" width="9.3" height="9.3"/>
<rect x="137.4" y="163.7" transform="matrix(0.9622 -0.2725 0.2725 0.9622 -40.4957 45.0811)" class="st2" width="9.3" height="9.3"/>
<rect x="134.9" y="154.8" transform="matrix(0.9622 -0.2725 0.2725 0.9622 -38.1632 44.0633)" class="st2" width="9.3" height="9.3"/>
<rect x="132.3" y="145.9" transform="matrix(0.9622 -0.2725 0.2725 0.9622 -35.8417 43.0204)" class="st2" width="9.3" height="9.3"/>
<rect x="129.8" y="137" transform="matrix(0.9622 -0.2725 0.2725 0.9622 -33.509 42.0028)" class="st1" width="9.3" height="9.3"/>
<rect x="127.3" y="128" transform="matrix(0.9622 -0.2725 0.2725 0.9622 -31.1511 40.9742)" class="st1" width="9.3" height="9.3"/>
<rect x="124.8" y="119.1" transform="matrix(0.9622 -0.2725 0.2725 0.9622 -28.8185 39.9565)" class="st2" width="9.3" height="9.3"/>
<rect x="122.2" y="110.2" transform="matrix(0.9622 -0.2725 0.2725 0.9622 -26.497 38.9136)" class="st2" width="9.3" height="9.3"/>
<rect x="119.7" y="101.3" transform="matrix(0.9622 -0.2725 0.2725 0.9622 -24.1644 37.8958)" class="st2" width="9.3" height="9.3"/>
<rect x="117.2" y="92.4" transform="matrix(0.9622 -0.2725 0.2725 0.9622 -21.8319 36.878)" class="st2" width="9.3" height="9.3"/>
<rect x="114.7" y="83.5" transform="matrix(0.9622 -0.2725 0.2725 0.9622 -19.4992 35.8605)" class="st2" width="9.3" height="9.3"/>
<rect x="112.1" y="74.6" transform="matrix(0.9622 -0.2725 0.2725 0.9622 -17.1775 34.8178)" class="st2" width="9.3" height="9.3"/>
<rect x="109.6" y="65.7" transform="matrix(0.9622 -0.2725 0.2725 0.9622 -14.845 33.8)" class="st2" width="9.3" height="9.3"/>
<rect x="107.1" y="56.7" transform="matrix(0.9622 -0.2725 0.2725 0.9622 -12.4872 32.7712)" class="st2" width="9.3" height="9.3"/>
<rect x="104.6" y="47.8" transform="matrix(0.9622 -0.2725 0.2725 0.9622 -10.1546 31.7534)" class="st2" width="9.3" height="9.3"/>
<rect x="102" y="38.9" transform="matrix(0.9622 -0.2725 0.2725 0.9622 -7.8331 30.7105)" class="st2" width="9.3" height="9.3"/>
<rect x="99.5" y="30" transform="matrix(0.9622 -0.2725 0.2725 0.9622 -5.5006 29.6928)" class="st2" width="9.3" height="9.3"/>
<rect x="97" y="21.1" transform="matrix(0.9622 -0.2725 0.2725 0.9622 -3.1679 28.6752)" class="st1" width="9.3" height="9.3"/>
<polygon class="st2" points="182,258.2 182.7,260.6 173.1,260.6 173,260.7 173,260.6 173,260.6 181.9,258.1 182,258.1 182,258.1 
	182,258.1 "/>
<polygon class="st2" points="181.9,258.2 173.1,260.6 173,260.7 173,260.7 173,260.7 173,260.7 173,260.6 172.9,260.6 170.4,251.7 
	170.5,251.7 179.3,249.2 179.4,249.2 179.4,249.3 181.9,258.1 "/>
<rect x="169" y="241.4" transform="matrix(0.9622 -0.2725 0.2725 0.9622 -60.4746 56.6345)" class="st2" width="9.3" height="9.3"/>
<rect x="166.5" y="232.5" transform="matrix(0.9622 -0.2725 0.2725 0.9622 -58.1421 55.6168)" class="st2" width="9.3" height="9.3"/>
<rect x="164" y="223.6" transform="matrix(0.9622 -0.2725 0.2725 0.9622 -55.8095 54.5991)" class="st2" width="9.3" height="9.3"/>
<rect x="161.4" y="214.6" transform="matrix(0.9622 -0.2725 0.2725 0.9622 -53.4628 53.5451)" class="st2" width="9.3" height="9.3"/>
<rect x="158.9" y="205.7" transform="matrix(0.9622 -0.2725 0.2725 0.9622 -51.1302 52.5273)" class="st2" width="9.3" height="9.3"/>
<rect x="156.4" y="196.8" transform="matrix(0.9622 -0.2725 0.2725 0.9622 -48.7975 51.5098)" class="st2" width="9.3" height="9.3"/>
<rect x="153.9" y="187.9" transform="matrix(0.9622 -0.2725 0.2725 0.9622 -46.4648 50.4922)" class="st2" width="9.3" height="9.3"/>
<rect x="151.3" y="179" transform="matrix(0.9622 -0.2725 0.2725 0.9622 -44.1434 49.4493)" class="st2" width="9.3" height="9.3"/>
<rect x="148.8" y="170.1" transform="matrix(0.9622 -0.2725 0.2725 0.9622 -41.8108 48.4315)" class="st2" width="9.3" height="9.3"/>
<rect x="146.3" y="161.2" transform="matrix(0.9622 -0.2725 0.2725 0.9622 -39.4782 47.4138)" class="st2" width="9.3" height="9.3"/>
<rect x="143.8" y="152.3" transform="matrix(0.9622 -0.2725 0.2725 0.9622 -37.1456 46.396)" class="st2" width="9.3" height="9.3"/>
<rect x="141.2" y="143.3" transform="matrix(0.9622 -0.2725 0.2725 0.9622 -34.7989 45.342)" class="st2" width="9.3" height="9.3"/>
<rect x="138.7" y="134.4" transform="matrix(0.9622 -0.2725 0.2725 0.9622 -32.4662 44.3245)" class="st1" width="9.3" height="9.3"/>
<rect x="136.2" y="125.5" transform="matrix(0.9622 -0.2725 0.2725 0.9622 -30.1335 43.3069)" class="st1" width="9.3" height="9.3"/>
<rect x="133.7" y="116.6" transform="matrix(0.9622 -0.2725 0.2725 0.9622 -27.801 42.2892)" class="st2" width="9.3" height="9.3"/>
<rect x="131.2" y="107.7" transform="matrix(0.9622 -0.2725 0.2725 0.9622 -25.4684 41.2714)" class="st2" width="9.3" height="9.3"/>
<rect x="128.6" y="98.8" transform="matrix(0.9622 -0.2725 0.2725 0.9622 -23.1469 40.2285)" class="st2" width="9.3" height="9.3"/>
<rect x="126.1" y="89.9" transform="matrix(0.9622 -0.2725 0.2725 0.9622 -20.8143 39.2107)" class="st2" width="9.3" height="9.3"/>
<rect x="123.6" y="81" transform="matrix(0.9622 -0.2725 0.2725 0.9622 -18.4816 38.1932)" class="st2" width="9.3" height="9.3"/>
<rect x="121.1" y="72" transform="matrix(0.9622 -0.2725 0.2725 0.9622 -16.1238 37.1646)" class="st2" width="9.3" height="9.3"/>
<rect x="118.5" y="63.1" transform="matrix(0.9622 -0.2725 0.2725 0.9622 -13.8022 36.1216)" class="st2" width="9.3" height="9.3"/>
<rect x="116" y="54.2" transform="matrix(0.9622 -0.2725 0.2725 0.9622 -11.4697 35.1039)" class="st2" width="9.3" height="9.3"/>
<rect x="113.5" y="45.3" transform="matrix(0.9622 -0.2725 0.2725 0.9622 -9.1371 34.0861)" class="st2" width="9.3" height="9.3"/>
<rect x="111" y="36.4" transform="matrix(0.9622 -0.2725 0.2725 0.9622 -6.8045 33.0684)" class="st3" width="9.3" height="9.3"/>
<rect x="108.4" y="27.5" transform="matrix(0.9622 -0.2725 0.2725 0.9622 -4.483 32.0255)" class="st2" width="9.3" height="9.3"/>
<rect x="105.9" y="18.6" transform="matrix(0.9622 -0.2725 0.2725 0.9622 -2.1503 31.0079)" class="st1" width="9.3" height="9.3"/>
<g>
	<polygon class="st3" points="190.8,260.6 182.6,260.6 181.9,258.1 182,258.1 182,258.1 190.8,255.6 190.9,255.6 190.9,255.6 
		190.8,255.7 	"/>
	<polygon class="st3" points="190.9,255.6 190.9,255.6 190.8,255.7 182,258.2 182,258.2 182,258.1 182,258.1 179.4,249.3 
		179.4,249.2 188.3,246.7 188.4,246.7 190.8,255.2 	"/>
	
		<rect x="177.9" y="238.9" transform="matrix(0.9622 -0.2725 0.2725 0.9622 -59.4571 58.9672)" class="st3" width="9.3" height="9.3"/>
	
		<rect x="175.4" y="229.9" transform="matrix(0.9622 -0.2725 0.2725 0.9622 -57.0993 57.9384)" class="st3" width="9.3" height="9.3"/>
	
		<rect x="172.9" y="221" transform="matrix(0.9622 -0.2725 0.2725 0.9622 -54.7668 56.9207)" class="st3" width="9.3" height="9.3"/>
	
		<rect x="170.4" y="212.1" transform="matrix(0.9622 -0.2725 0.2725 0.9622 -52.4342 55.903)" class="st3" width="9.3" height="9.3"/>
	
		<rect x="167.8" y="203.2" transform="matrix(0.9622 -0.2725 0.2725 0.9622 -50.1127 54.86)" class="st3" width="9.3" height="9.3"/>
	
		<rect x="165.3" y="194.3" transform="matrix(0.9622 -0.2725 0.2725 0.9622 -47.78 53.8424)" class="st3" width="9.3" height="9.3"/>
	
		<rect x="162.8" y="185.4" transform="matrix(0.9622 -0.2725 0.2725 0.9622 -45.4473 52.8249)" class="st3" width="9.3" height="9.3"/>
	
		<rect x="160.3" y="176.5" transform="matrix(0.9622 -0.2725 0.2725 0.9622 -43.1147 51.8072)" class="st3" width="9.3" height="9.3"/>
	
		<rect x="157.7" y="167.6" transform="matrix(0.9622 -0.2725 0.2725 0.9622 -40.7932 50.7642)" class="st3" width="9.3" height="9.3"/>
	
		<rect x="155.2" y="158.6" transform="matrix(0.9622 -0.2725 0.2725 0.9622 -38.4355 49.7354)" class="st3" width="9.3" height="9.3"/>
	
		<rect x="152.7" y="149.7" transform="matrix(0.9622 -0.2725 0.2725 0.9622 -36.1029 48.7176)" class="st3" width="9.3" height="9.3"/>
	
		<rect x="150.2" y="140.8" transform="matrix(0.9622 -0.2725 0.2725 0.9622 -33.7703 47.6999)" class="st3" width="9.3" height="9.3"/>
</g>
<rect x="147.6" y="131.9" transform="matrix(0.9622 -0.2725 0.2725 0.9622 -31.4487 46.6572)" class="st1" width="9.3" height="9.3"/>
<rect x="145.1" y="123" transform="matrix(0.9622 -0.2725 0.2725 0.9622 -29.116 45.6396)" class="st1" width="9.3" height="9.3"/>
<rect x="142.6" y="114.1" transform="matrix(0.9622 -0.2725 0.2725 0.9622 -26.7834 44.6219)" class="st2" width="9.3" height="9.3"/>
<rect x="140.1" y="105.2" transform="matrix(0.9622 -0.2725 0.2725 0.9622 -24.4508 43.6041)" class="st2" width="9.3" height="9.3"/>
<rect x="137.5" y="96.3" transform="matrix(0.9622 -0.2725 0.2725 0.9622 -22.1293 42.5612)" class="st2" width="9.3" height="9.3"/>
<rect x="135" y="87.3" transform="matrix(0.9622 -0.2725 0.2725 0.9622 -19.7716 41.5324)" class="st2" width="9.3" height="9.3"/>
<rect x="132.5" y="78.4" transform="matrix(0.9622 -0.2725 0.2725 0.9622 -17.4389 40.5148)" class="st2" width="9.3" height="9.3"/>
<rect x="130" y="69.5" transform="matrix(0.9622 -0.2725 0.2725 0.9622 -15.1062 39.4973)" class="st2" width="9.3" height="9.3"/>
<rect x="127.4" y="60.6" transform="matrix(0.9622 -0.2725 0.2725 0.9622 -12.7847 38.4543)" class="st3" width="9.3" height="9.3"/>
<rect x="124.9" y="51.7" transform="matrix(0.9622 -0.2725 0.2725 0.9622 -10.4521 37.4366)" class="st3" width="9.3" height="9.3"/>
<rect x="122.4" y="42.8" transform="matrix(0.9622 -0.2725 0.2725 0.9622 -8.1195 36.4188)" class="st3" width="9.3" height="9.3"/>
<rect x="119.9" y="33.9" transform="matrix(0.9622 -0.2725 0.2725 0.9622 -5.787 35.4011)" class="st2" width="9.3" height="9.3"/>
<rect x="117.4" y="25" transform="matrix(0.9622 -0.2725 0.2725 0.9622 -3.4544 34.3833)" class="st1" width="9.3" height="9.3"/>
<rect x="114.8" y="16" transform="matrix(0.9622 -0.2725 0.2725 0.9622 -1.1076 33.3295)" class="st1" width="9.3" height="9.3"/>
<rect x="156.6" y="129.4" transform="matrix(0.9622 -0.2725 0.2725 0.9622 -30.4199 49.0149)" class="st1" width="9.3" height="9.3"/>
<rect x="154" y="120.5" transform="matrix(0.9622 -0.2725 0.2725 0.9622 -28.0983 47.9722)" class="st1" width="9.3" height="9.3"/>
<rect x="151.5" y="111.6" transform="matrix(0.9622 -0.2725 0.2725 0.9622 -25.7657 46.9544)" class="st2" width="9.3" height="9.3"/>
<rect x="149" y="102.6" transform="matrix(0.9622 -0.2725 0.2725 0.9622 -23.4079 45.9256)" class="st2" width="9.3" height="9.3"/>
<rect x="146.5" y="93.7" transform="matrix(0.9622 -0.2725 0.2725 0.9622 -21.0753 44.9079)" class="st2" width="9.3" height="9.3"/>
<rect x="143.9" y="84.8" transform="matrix(0.9622 -0.2725 0.2725 0.9622 -18.7538 43.8649)" class="st3" width="9.3" height="9.3"/>
<rect x="141.4" y="75.9" transform="matrix(0.9622 -0.2725 0.2725 0.9622 -16.4211 42.8474)" class="st3" width="9.3" height="9.3"/>
<rect x="138.9" y="67" transform="matrix(0.9622 -0.2725 0.2725 0.9622 -14.0884 41.8298)" class="st3" width="9.3" height="9.3"/>
<rect x="136.4" y="58.1" transform="matrix(0.9622 -0.2725 0.2725 0.9622 -11.7559 40.8121)" class="st3" width="9.3" height="9.3"/>
<rect x="133.8" y="49.2" transform="matrix(0.9622 -0.2725 0.2725 0.9622 -9.4344 39.7691)" class="st2" width="9.3" height="9.3"/>
<rect x="131.3" y="40.3" transform="matrix(0.9622 -0.2725 0.2725 0.9622 -7.1018 38.7514)" class="st2" width="9.3" height="9.3"/>
<rect x="128.8" y="31.4" transform="matrix(0.9622 -0.2725 0.2725 0.9622 -4.7692 37.7337)" class="st1" width="9.3" height="9.3"/>
<rect x="126.3" y="22.4" transform="matrix(0.9622 -0.2725 0.2725 0.9622 -2.4115 36.7048)" class="st1" width="9.3" height="9.3"/>
<rect x="165.5" y="126.9" transform="matrix(0.9622 -0.2725 0.2725 0.9622 -29.4021 51.3475)" class="st1" width="9.3" height="9.3"/>
<rect x="162.9" y="117.9" transform="matrix(0.9622 -0.2725 0.2725 0.9622 -27.0553 50.2937)" class="st1" width="9.3" height="9.3"/>
<rect x="160.4" y="109" transform="matrix(0.9622 -0.2725 0.2725 0.9622 -24.7227 49.2759)" class="st2" width="9.3" height="9.3"/>
<rect x="157.9" y="100.1" transform="matrix(0.9622 -0.2725 0.2725 0.9622 -22.3902 48.2582)" class="st2" width="9.3" height="9.3"/>
<rect x="155.4" y="91.2" transform="matrix(0.9622 -0.2725 0.2725 0.9622 -20.0576 47.2404)" class="st3" width="9.3" height="9.3"/>
<rect x="152.8" y="82.3" transform="matrix(0.9622 -0.2725 0.2725 0.9622 -17.7361 46.1975)" class="st3" width="9.3" height="9.3"/>
<rect x="150.3" y="73.4" transform="matrix(0.9622 -0.2725 0.2725 0.9622 -15.4034 45.1799)" class="st3" width="9.3" height="9.3"/>
<rect x="147.8" y="64.5" transform="matrix(0.9622 -0.2725 0.2725 0.9622 -13.0707 44.1624)" class="st2" width="9.3" height="9.3"/>
<rect x="145.3" y="55.6" transform="matrix(0.9622 -0.2725 0.2725 0.9622 -10.7381 43.1447)" class="st2" width="9.3" height="9.3"/>
<rect x="142.7" y="46.7" transform="matrix(0.9622 -0.2725 0.2725 0.9622 -8.4166 42.1017)" class="st1" width="9.3" height="9.3"/>
<rect x="140.2" y="37.7" transform="matrix(0.9622 -0.2725 0.2725 0.9622 -6.0589 41.0729)" class="st1" width="9.3" height="9.3"/>
<rect x="137.7" y="28.8" transform="matrix(0.9622 -0.2725 0.2725 0.9622 -3.7263 40.0552)" class="st1" width="9.3" height="9.3"/>
<rect x="171.9" y="115.4" transform="matrix(0.9622 -0.2725 0.2725 0.9622 -26.0265 52.6515)" class="st1" width="9.3" height="9.3"/>
<rect x="169.3" y="106.5" transform="matrix(0.9622 -0.2725 0.2725 0.9622 -23.705 51.6085)" class="st1" width="9.3" height="9.3"/>
<rect x="166.8" y="97.6" transform="matrix(0.9622 -0.2725 0.2725 0.9622 -21.3724 50.5908)" class="st2" width="9.3" height="9.3"/>
<rect x="164.3" y="88.7" transform="matrix(0.9622 -0.2725 0.2725 0.9622 -19.0398 49.573)" class="st2" width="9.3" height="9.3"/>
<rect x="161.8" y="79.8" transform="matrix(0.9622 -0.2725 0.2725 0.9622 -16.7073 48.5553)" class="st2" width="9.3" height="9.3"/>
<rect x="159.2" y="70.9" transform="matrix(0.9622 -0.2725 0.2725 0.9622 -14.3856 47.5125)" class="st2" width="9.3" height="9.3"/>
<rect x="156.7" y="61.9" transform="matrix(0.9622 -0.2725 0.2725 0.9622 -12.0278 46.4839)" class="st1" width="9.3" height="9.3"/>
<rect x="154.2" y="53" transform="matrix(0.9622 -0.2725 0.2725 0.9622 -9.6952 45.4662)" class="st1" width="9.3" height="9.3"/>
<rect x="151.7" y="44.1" transform="matrix(0.9622 -0.2725 0.2725 0.9622 -7.3626 44.4484)" class="st1" width="9.3" height="9.3"/>
<rect x="178.2" y="104" transform="matrix(0.9622 -0.2725 0.2725 0.9622 -22.6872 53.9411)" class="st1" width="9.3" height="9.3"/>
<rect x="175.7" y="95.1" transform="matrix(0.9622 -0.2725 0.2725 0.9622 -20.3547 52.9233)" class="st1" width="9.3" height="9.3"/>
<rect x="173.2" y="86.2" transform="matrix(0.9622 -0.2725 0.2725 0.9622 -18.0221 51.9056)" class="st1" width="9.3" height="9.3"/>
<rect x="170.7" y="77.3" transform="matrix(0.9622 -0.2725 0.2725 0.9622 -15.6895 50.8879)" class="st1" width="9.3" height="9.3"/>
<rect x="168.1" y="68.3" transform="matrix(0.9622 -0.2725 0.2725 0.9622 -13.3427 49.834)" class="st1" width="9.3" height="9.3"/>
<rect x="165.6" y="59.4" transform="matrix(0.9622 -0.2725 0.2725 0.9622 -11.01 48.8165)" class="st1" width="9.3" height="9.3"/>
</svg>
