<?xml version="1.0" encoding="utf-8"?>
<!-- Generator: Adobe Illustrator 25.2.0, SVG Export Plug-In . SVG Version: 6.00 Build 0)  -->
<svg version="1.1" id="palm_trees_Image" xmlns="http://www.w3.org/2000/svg" xmlns:xlink="http://www.w3.org/1999/xlink" x="0px"
	 y="0px" viewBox="0 0 208.8 250.6" style="enable-background:new 0 0 208.8 250.6;" xml:space="preserve">
<style type="text/css">
	.st0{fill:none;}
	.st1{fill:#C0CCDC;}
	.st2{fill:#8B9BB5;}
	.st3{fill:#5B6986;}
</style>
<rect x="0.5" y="0.2" class="st0" width="207.8" height="250.1"/>
<g>
	
		<rect x="102.3" y="121.2" transform="matrix(0.2725 -0.9622 0.9622 0.2725 -43.3019 194.4746)" class="st1" width="9.3" height="9.3"/>
	
		<rect x="104.9" y="112.2" transform="matrix(0.2725 -0.9622 0.9622 0.2725 -32.8008 190.3985)" class="st1" width="9.3" height="9.3"/>
	
		<rect x="107.4" y="103.4" transform="matrix(0.2725 -0.9622 0.9622 0.2725 -22.4122 186.3663)" class="st1" width="9.3" height="9.3"/>
	
		<rect x="109.9" y="94.5" transform="matrix(0.2725 -0.9622 0.9622 0.2725 -12.0235 182.334)" class="st1" width="9.3" height="9.3"/>
	
		<rect x="112.4" y="85.6" transform="matrix(0.2725 -0.9622 0.9622 0.2725 -1.6311 178.3041)" class="st1" width="9.3" height="9.3"/>
	<rect x="115" y="76.6" transform="matrix(0.2725 -0.9622 0.9622 0.2725 8.8738 174.2303)" class="st1" width="9.3" height="9.3"/>
	
		<rect x="90.9" y="127.6" transform="matrix(0.2725 -0.9622 0.9622 0.2725 -57.7228 188.1182)" class="st1" width="9.3" height="9.3"/>
	
		<rect x="93.4" y="118.7" transform="matrix(0.2725 -0.9622 0.9622 0.2725 -47.3342 184.086)" class="st1" width="9.3" height="9.3"/>
	
		<rect x="95.9" y="109.8" transform="matrix(0.2725 -0.9622 0.9622 0.2725 -36.9455 180.0537)" class="st2" width="9.3" height="9.3"/>
	
		<rect x="98.5" y="100.8" transform="matrix(0.2725 -0.9622 0.9622 0.2725 -26.4445 175.9776)" class="st2" width="9.3" height="9.3"/>
	
		<rect x="101" y="91.9" transform="matrix(0.2725 -0.9622 0.9622 0.2725 -16.0558 171.9454)" class="st2" width="9.3" height="9.3"/>
	
		<rect x="103.6" y="83.1" transform="matrix(0.2725 -0.9622 0.9622 0.2725 -5.6634 167.9154)" class="st2" width="9.3" height="9.3"/>
	<rect x="106" y="74.1" transform="matrix(0.2725 -0.9622 0.9622 0.2725 4.6852 163.7731)" class="st1" width="9.3" height="9.3"/>
	
		<rect x="108.5" y="65.2" transform="matrix(0.2725 -0.9622 0.9622 0.2725 15.1864 159.697)" class="st1" width="9.3" height="9.3"/>
	
		<rect x="111.1" y="56.3" transform="matrix(0.2725 -0.9622 0.9622 0.2725 25.5749 155.6648)" class="st1" width="9.3" height="9.3"/>
	
		<rect x="79.5" y="133.9" transform="matrix(0.2725 -0.9622 0.9622 0.2725 -72.1475 181.7596)" class="st1" width="9.3" height="9.3"/>
	
		<rect x="82" y="125.1" transform="matrix(0.2725 -0.9622 0.9622 0.2725 -61.7551 177.7296)" class="st1" width="9.3" height="9.3"/>
	
		<rect x="84.5" y="116.2" transform="matrix(0.2725 -0.9622 0.9622 0.2725 -51.3664 173.6973)" class="st2" width="9.3" height="9.3"/>
	
		<rect x="87.1" y="107.3" transform="matrix(0.2725 -0.9622 0.9622 0.2725 -40.9779 169.6651)" class="st2" width="9.3" height="9.3"/>
	
		<rect x="89.6" y="98.3" transform="matrix(0.2725 -0.9622 0.9622 0.2725 -30.4767 165.589)" class="st2" width="9.3" height="9.3"/>
	
		<rect x="92.1" y="89.4" transform="matrix(0.2725 -0.9622 0.9622 0.2725 -20.0881 161.5567)" class="st2" width="9.3" height="9.3"/>
	
		<rect x="94.6" y="80.5" transform="matrix(0.2725 -0.9622 0.9622 0.2725 -9.7395 157.4144)" class="st2" width="9.3" height="9.3"/>
	<rect x="97.1" y="71.6" transform="matrix(0.2725 -0.9622 0.9622 0.2725 0.653 153.3845)" class="st2" width="9.3" height="9.3"/>
	<rect x="99.7" y="62.6" transform="matrix(0.2725 -0.9622 0.9622 0.2725 11.154 149.3084)" class="st2" width="9.3" height="9.3"/>
	
		<rect x="102.2" y="53.7" transform="matrix(0.2725 -0.9622 0.9622 0.2725 21.5427 145.2761)" class="st1" width="9.3" height="9.3"/>
	
		<rect x="104.7" y="44.9" transform="matrix(0.2725 -0.9622 0.9622 0.2725 31.9313 141.2439)" class="st1" width="9.3" height="9.3"/>
	<rect x="107.2" y="36" transform="matrix(0.2725 -0.9622 0.9622 0.2725 42.32 137.2115)" class="st1" width="9.3" height="9.3"/>
	
		<rect x="70.6" y="131.5" transform="matrix(0.2725 -0.9622 0.9622 0.2725 -76.2922 171.4147)" class="st1" width="9.3" height="9.3"/>
	
		<rect x="73.1" y="122.5" transform="matrix(0.2725 -0.9622 0.9622 0.2725 -65.7873 167.341)" class="st1" width="9.3" height="9.3"/>
	
		<rect x="75.6" y="113.6" transform="matrix(0.2725 -0.9622 0.9622 0.2725 -55.3988 163.3087)" class="st2" width="9.3" height="9.3"/>
	
		<rect x="78.2" y="104.8" transform="matrix(0.2725 -0.9622 0.9622 0.2725 -45.01 159.2764)" class="st2" width="9.3" height="9.3"/>
	
		<rect x="80.6" y="95.8" transform="matrix(0.2725 -0.9622 0.9622 0.2725 -34.6653 155.1318)" class="st2" width="9.3" height="9.3"/>
	
		<rect x="83.2" y="86.9" transform="matrix(0.2725 -0.9622 0.9622 0.2725 -24.1641 151.0557)" class="st2" width="9.3" height="9.3"/>
	<rect x="85.7" y="78" transform="matrix(0.2725 -0.9622 0.9622 0.2725 -13.7717 147.0257)" class="st2" width="9.3" height="9.3"/>
	
		<rect x="88.2" y="69.1" transform="matrix(0.2725 -0.9622 0.9622 0.2725 -3.3793 142.9958)" class="st2" width="9.3" height="9.3"/>
	<rect x="90.7" y="60.2" transform="matrix(0.2725 -0.9622 0.9622 0.2725 7.0093 138.9636)" class="st2" width="9.3" height="9.3"/>
	
		<rect x="93.3" y="51.2" transform="matrix(0.2725 -0.9622 0.9622 0.2725 17.5104 134.8875)" class="st2" width="9.3" height="9.3"/>
	
		<rect x="95.8" y="42.3" transform="matrix(0.2725 -0.9622 0.9622 0.2725 27.8991 130.8551)" class="st2" width="9.3" height="9.3"/>
	<rect x="98.4" y="33.4" transform="matrix(0.2725 -0.9622 0.9622 0.2725 38.2877 126.823)" class="st1" width="9.3" height="9.3"/>
	
		<rect x="100.8" y="24.5" transform="matrix(0.2725 -0.9622 0.9622 0.2725 48.6326 122.6782)" class="st1" width="9.3" height="9.3"/>
	<polygon class="st2" points="39.2,246.3 39.2,246.3 39.2,246.3 38,250.4 28.4,250.4 30.2,243.8 30.2,243.7 30.3,243.7 30.3,243.7 
		30.3,243.7 	"/>
	
		<rect x="31.3" y="235.9" transform="matrix(0.2725 -0.9622 0.9622 0.2725 -205.293 209.6501)" class="st2" width="9.3" height="9.3"/>
	
		<rect x="33.9" y="226.9" transform="matrix(0.2725 -0.9622 0.9622 0.2725 -194.7919 205.574)" class="st2" width="9.3" height="9.3"/>
	
		<rect x="36.4" y="218.1" transform="matrix(0.2725 -0.9622 0.9622 0.2725 -184.4033 201.5417)" class="st2" width="9.3" height="9.3"/>
	
		<rect x="38.9" y="209.2" transform="matrix(0.2725 -0.9622 0.9622 0.2725 -174.0146 197.5095)" class="st2" width="9.3" height="9.3"/>
	
		<rect x="41.5" y="200.3" transform="matrix(0.2725 -0.9622 0.9622 0.2725 -163.626 193.4772)" class="st2" width="9.3" height="9.3"/>
	
		<rect x="44" y="191.3" transform="matrix(0.2725 -0.9622 0.9622 0.2725 -153.1211 189.4035)" class="st2" width="9.3" height="9.3"/>
	
		<rect x="46.5" y="182.4" transform="matrix(0.2725 -0.9622 0.9622 0.2725 -142.7724 185.2611)" class="st2" width="9.3" height="9.3"/>
	
		<rect x="49" y="173.5" transform="matrix(0.2725 -0.9622 0.9622 0.2725 -132.3839 181.2289)" class="st2" width="9.3" height="9.3"/>
	
		<rect x="51.5" y="164.6" transform="matrix(0.2725 -0.9622 0.9622 0.2725 -121.9952 177.1966)" class="st2" width="9.3" height="9.3"/>
	
		<rect x="54.1" y="155.6" transform="matrix(0.2725 -0.9622 0.9622 0.2725 -111.4942 173.1205)" class="st2" width="9.3" height="9.3"/>
	
		<rect x="56.6" y="146.8" transform="matrix(0.2725 -0.9622 0.9622 0.2725 -101.1055 169.0882)" class="st2" width="9.3" height="9.3"/>
	
		<rect x="59.1" y="137.9" transform="matrix(0.2725 -0.9622 0.9622 0.2725 -90.7169 165.056)" class="st2" width="9.3" height="9.3"/>
	
		<rect x="61.7" y="129" transform="matrix(0.2725 -0.9622 0.9622 0.2725 -80.3244 161.0261)" class="st1" width="9.3" height="9.3"/>
	
		<rect x="64.2" y="120" transform="matrix(0.2725 -0.9622 0.9622 0.2725 -69.8197 156.9523)" class="st1" width="9.3" height="9.3"/>
	
		<rect x="66.7" y="111.1" transform="matrix(0.2725 -0.9622 0.9622 0.2725 -59.4747 152.8076)" class="st2" width="9.3" height="9.3"/>
	
		<rect x="69.2" y="102.2" transform="matrix(0.2725 -0.9622 0.9622 0.2725 -49.0862 148.7754)" class="st2" width="9.3" height="9.3"/>
	
		<rect x="71.7" y="93.3" transform="matrix(0.2725 -0.9622 0.9622 0.2725 -38.6974 144.7431)" class="st2" width="9.3" height="9.3"/>
	
		<rect x="74.3" y="84.3" transform="matrix(0.2725 -0.9622 0.9622 0.2725 -28.1965 140.6671)" class="st2" width="9.3" height="9.3"/>
	
		<rect x="76.8" y="75.4" transform="matrix(0.2725 -0.9622 0.9622 0.2725 -17.804 136.6371)" class="st2" width="9.3" height="9.3"/>
	
		<rect x="79.3" y="66.6" transform="matrix(0.2725 -0.9622 0.9622 0.2725 -7.4116 132.6072)" class="st2" width="9.3" height="9.3"/>
	<rect x="81.9" y="57.7" transform="matrix(0.2725 -0.9622 0.9622 0.2725 2.9771 128.5749)" class="st2" width="9.3" height="9.3"/>
	
		<rect x="84.4" y="48.7" transform="matrix(0.2725 -0.9622 0.9622 0.2725 13.4781 124.4988)" class="st2" width="9.3" height="9.3"/>
	<rect x="86.8" y="39.8" transform="matrix(0.2725 -0.9622 0.9622 0.2725 23.823 120.3542)" class="st2" width="9.3" height="9.3"/>
	
		<rect x="89.4" y="30.9" transform="matrix(0.2725 -0.9622 0.9622 0.2725 34.2116 116.3219)" class="st2" width="9.3" height="9.3"/>
	<rect x="91.9" y="22" transform="matrix(0.2725 -0.9622 0.9622 0.2725 44.6003 112.2896)" class="st1" width="9.3" height="9.3"/>
	
		<rect x="94.4" y="13.1" transform="matrix(0.2725 -0.9622 0.9622 0.2725 54.9927 108.2596)" class="st1" width="9.3" height="9.3"/>
	<polygon class="st2" points="18.9,250.1 19.8,250.4 18.8,250.4 18.8,250.1 18.8,250.1 18.8,250.1 18.8,250.1 	"/>
	<polygon class="st2" points="30.3,243.7 30.3,243.7 30.3,243.8 30.3,243.8 28.4,250.4 19.6,250.4 18.9,250.1 18.9,250.1 
		18.8,250.1 18.8,250.1 18.8,250.1 21.4,241.3 21.4,241.2 21.4,241.2 21.4,241.2 21.4,241.2 21.4,241.2 30.2,243.7 30.3,243.7 	"/>
	
		<rect x="22.5" y="233.4" transform="matrix(0.2725 -0.9622 0.9622 0.2725 -209.3252 199.2614)" class="st2" width="9.3" height="9.3"/>
	
		<rect x="25" y="224.4" transform="matrix(0.2725 -0.9622 0.9622 0.2725 -198.8242 195.1853)" class="st2" width="9.3" height="9.3"/>
	
		<rect x="27.5" y="215.5" transform="matrix(0.2725 -0.9622 0.9622 0.2725 -188.4355 191.1531)" class="st2" width="9.3" height="9.3"/>
	
		<rect x="30.1" y="206.6" transform="matrix(0.2725 -0.9622 0.9622 0.2725 -178.0469 187.1208)" class="st2" width="9.3" height="9.3"/>
	
		<rect x="32.5" y="197.7" transform="matrix(0.2725 -0.9622 0.9622 0.2725 -167.702 182.9762)" class="st2" width="9.3" height="9.3"/>
	
		<rect x="35.1" y="188.8" transform="matrix(0.2725 -0.9622 0.9622 0.2725 -157.1973 178.9024)" class="st2" width="9.3" height="9.3"/>
	
		<rect x="37.6" y="179.9" transform="matrix(0.2725 -0.9622 0.9622 0.2725 -146.8048 174.8725)" class="st2" width="9.3" height="9.3"/>
	
		<rect x="40.1" y="171" transform="matrix(0.2725 -0.9622 0.9622 0.2725 -136.4161 170.8402)" class="st2" width="9.3" height="9.3"/>
	
		<rect x="42.6" y="162.1" transform="matrix(0.2725 -0.9622 0.9622 0.2725 -126.0275 166.808)" class="st2" width="9.3" height="9.3"/>
	
		<rect x="45.2" y="153.1" transform="matrix(0.2725 -0.9622 0.9622 0.2725 -115.5264 162.7318)" class="st2" width="9.3" height="9.3"/>
	
		<rect x="47.7" y="144.2" transform="matrix(0.2725 -0.9622 0.9622 0.2725 -105.1378 158.6996)" class="st2" width="9.3" height="9.3"/>
	
		<rect x="50.3" y="135.3" transform="matrix(0.2725 -0.9622 0.9622 0.2725 -94.7492 154.6673)" class="st2" width="9.3" height="9.3"/>
	
		<rect x="52.7" y="126.4" transform="matrix(0.2725 -0.9622 0.9622 0.2725 -84.4005 150.525)" class="st1" width="9.3" height="9.3"/>
	
		<rect x="55.2" y="117.5" transform="matrix(0.2725 -0.9622 0.9622 0.2725 -74.008 146.4951)" class="st1" width="9.3" height="9.3"/>
	
		<rect x="57.8" y="108.6" transform="matrix(0.2725 -0.9622 0.9622 0.2725 -63.5071 142.419)" class="st2" width="9.3" height="9.3"/>
	
		<rect x="60.3" y="99.7" transform="matrix(0.2725 -0.9622 0.9622 0.2725 -53.1183 138.3867)" class="st2" width="9.3" height="9.3"/>
	
		<rect x="62.8" y="90.8" transform="matrix(0.2725 -0.9622 0.9622 0.2725 -42.7298 134.3545)" class="st2" width="9.3" height="9.3"/>
	
		<rect x="65.4" y="81.9" transform="matrix(0.2725 -0.9622 0.9622 0.2725 -32.3411 130.3221)" class="st2" width="9.3" height="9.3"/>
	
		<rect x="67.9" y="72.9" transform="matrix(0.2725 -0.9622 0.9622 0.2725 -21.8363 126.2484)" class="st2" width="9.3" height="9.3"/>
	<rect x="70.4" y="64" transform="matrix(0.2725 -0.9622 0.9622 0.2725 -11.4438 122.2185)" class="st2" width="9.3" height="9.3"/>
	<rect x="72.9" y="55.1" transform="matrix(0.2725 -0.9622 0.9622 0.2725 -1.099 118.0738)" class="st2" width="9.3" height="9.3"/>
	<rect x="75.4" y="46.2" transform="matrix(0.2725 -0.9622 0.9622 0.2725 9.2897 114.0416)" class="st2" width="9.3" height="9.3"/>
	<rect x="78" y="37.2" transform="matrix(0.2725 -0.9622 0.9622 0.2725 19.7907 109.9655)" class="st2" width="9.3" height="9.3"/>
	
		<rect x="80.5" y="28.4" transform="matrix(0.2725 -0.9622 0.9622 0.2725 30.1794 105.9333)" class="st2" width="9.3" height="9.3"/>
	<rect x="83" y="19.5" transform="matrix(0.2725 -0.9622 0.9622 0.2725 40.5679 101.901)" class="st2" width="9.3" height="9.3"/>
	<rect x="85.5" y="10.6" transform="matrix(0.2725 -0.9622 0.9622 0.2725 50.9604 97.8711)" class="st1" width="9.3" height="9.3"/>
	<polygon class="st2" points="18.9,250.1 18.9,250.1 18.9,250.1 18.8,250.4 9.2,250.4 9.9,247.8 10,247.6 10,247.6 10,247.6 
		10,247.6 18.8,250.1 	"/>
	
		<rect x="11" y="239.8" transform="matrix(0.2725 -0.9622 0.9622 0.2725 -223.7438 192.9013)" class="st2" width="9.3" height="9.3"/>
	
		<rect x="13.6" y="230.9" transform="matrix(0.2725 -0.9622 0.9622 0.2725 -213.3552 188.869)" class="st2" width="9.3" height="9.3"/>
	
		<rect x="16.1" y="222" transform="matrix(0.2725 -0.9622 0.9622 0.2725 -202.9666 184.8367)" class="st2" width="9.3" height="9.3"/>
	
		<rect x="18.6" y="213" transform="matrix(0.2725 -0.9622 0.9622 0.2725 -192.5092 180.6483)" class="st2" width="9.3" height="9.3"/>
	
		<rect x="21.1" y="204.1" transform="matrix(0.2725 -0.9622 0.9622 0.2725 -182.1207 176.616)" class="st2" width="9.3" height="9.3"/>
	
		<rect x="23.6" y="195.2" transform="matrix(0.2725 -0.9622 0.9622 0.2725 -171.7319 172.5838)" class="st2" width="9.3" height="9.3"/>
	
		<rect x="26.1" y="186.3" transform="matrix(0.2725 -0.9622 0.9622 0.2725 -161.3396 168.5537)" class="st2" width="9.3" height="9.3"/>
	
		<rect x="28.7" y="177.3" transform="matrix(0.2725 -0.9622 0.9622 0.2725 -150.8347 164.48)" class="st2" width="9.3" height="9.3"/>
	
		<rect x="31.2" y="168.4" transform="matrix(0.2725 -0.9622 0.9622 0.2725 -140.4461 160.4478)" class="st2" width="9.3" height="9.3"/>
	
		<rect x="33.8" y="159.6" transform="matrix(0.2725 -0.9622 0.9622 0.2725 -130.0574 156.4155)" class="st2" width="9.3" height="9.3"/>
	
		<rect x="36.3" y="150.7" transform="matrix(0.2725 -0.9622 0.9622 0.2725 -119.6689 152.3832)" class="st2" width="9.3" height="9.3"/>
	
		<rect x="38.7" y="141.7" transform="matrix(0.2725 -0.9622 0.9622 0.2725 -109.2115 148.1948)" class="st2" width="9.3" height="9.3"/>
	
		<rect x="41.3" y="132.8" transform="matrix(0.2725 -0.9622 0.9622 0.2725 -98.8229 144.1624)" class="st2" width="9.3" height="9.3"/>
	
		<rect x="43.8" y="123.9" transform="matrix(0.2725 -0.9622 0.9622 0.2725 -88.4304 140.1325)" class="st1" width="9.3" height="9.3"/>
	<rect x="46.3" y="115" transform="matrix(0.2725 -0.9622 0.9622 0.2725 -78.038 136.1027)" class="st1" width="9.3" height="9.3"/>
	<rect x="48.9" y="106" transform="matrix(0.2725 -0.9622 0.9622 0.2725 -67.537 132.0266)" class="st2" width="9.3" height="9.3"/>
	
		<rect x="51.4" y="97.1" transform="matrix(0.2725 -0.9622 0.9622 0.2725 -57.1484 127.9944)" class="st2" width="9.3" height="9.3"/>
	
		<rect x="53.9" y="88.3" transform="matrix(0.2725 -0.9622 0.9622 0.2725 -46.7597 123.962)" class="st2" width="9.3" height="9.3"/>
	
		<rect x="56.5" y="79.4" transform="matrix(0.2725 -0.9622 0.9622 0.2725 -36.371 119.9298)" class="st2" width="9.3" height="9.3"/>
	<rect x="58.9" y="70.4" transform="matrix(0.2725 -0.9622 0.9622 0.2725 -25.91 115.7436)" class="st2" width="9.3" height="9.3"/>
	
		<rect x="61.5" y="61.5" transform="matrix(0.2725 -0.9622 0.9622 0.2725 -15.5176 111.7137)" class="st2" width="9.3" height="9.3"/>
	<rect x="64" y="52.6" transform="matrix(0.2725 -0.9622 0.9622 0.2725 -5.1289 107.6815)" class="st2" width="9.3" height="9.3"/>
	<rect x="66.5" y="43.7" transform="matrix(0.2725 -0.9622 0.9622 0.2725 5.2598 103.6491)" class="st2" width="9.3" height="9.3"/>
	<rect x="69" y="34.8" transform="matrix(0.2725 -0.9622 0.9622 0.2725 15.6483 99.6168)" class="st2" width="9.3" height="9.3"/>
	<rect x="71.6" y="25.8" transform="matrix(0.2725 -0.9622 0.9622 0.2725 26.1495 95.5408)" class="st3" width="9.3" height="9.3"/>
	<rect x="74.1" y="16.9" transform="matrix(0.2725 -0.9622 0.9622 0.2725 36.538 91.5085)" class="st2" width="9.3" height="9.3"/>
	<rect x="76.7" y="8.1" transform="matrix(0.2725 -0.9622 0.9622 0.2725 46.9305 87.4786)" class="st1" width="9.3" height="9.3"/>
	<g>
		<polygon class="st3" points="10,247.6 10,247.6 10,247.6 10,247.8 9.2,250.4 0.5,250.4 0.5,247 1,245.2 1.1,245 10,247.5 		"/>
		
			<rect x="2.1" y="237.4" transform="matrix(0.2725 -0.9622 0.9622 0.2725 -227.9638 182.5758)" class="st3" width="9.3" height="9.3"/>
		
			<rect x="4.5" y="228.5" transform="matrix(0.2725 -0.9622 0.9622 0.2725 -217.6045 178.4253)" class="st3" width="9.3" height="9.3"/>
		
			<rect x="7.1" y="219.6" transform="matrix(0.2725 -0.9622 0.9622 0.2725 -207.2011 174.3873)" class="st3" width="9.3" height="9.3"/>
		
			<rect x="9.6" y="210.6" transform="matrix(0.2725 -0.9622 0.9622 0.2725 -196.6852 170.3055)" class="st3" width="9.3" height="9.3"/>
		
			<rect x="12.1" y="201.7" transform="matrix(0.2725 -0.9622 0.9622 0.2725 -186.2819 166.2675)" class="st3" width="9.3" height="9.3"/>
		
			<rect x="14.7" y="192.8" transform="matrix(0.2725 -0.9622 0.9622 0.2725 -175.8785 162.2295)" class="st3" width="9.3" height="9.3"/>
		
			<rect x="17.2" y="183.9" transform="matrix(0.2725 -0.9622 0.9622 0.2725 -165.4715 158.1938)" class="st3" width="9.3" height="9.3"/>
		
			<rect x="19.8" y="174.9" transform="matrix(0.2725 -0.9622 0.9622 0.2725 -154.9518 154.1143)" class="st3" width="9.3" height="9.3"/>
		
			<rect x="22.3" y="166" transform="matrix(0.2725 -0.9622 0.9622 0.2725 -144.5485 150.0765)" class="st3" width="9.3" height="9.3"/>
		
			<rect x="24.7" y="157" transform="matrix(0.2725 -0.9622 0.9622 0.2725 -134.189 145.9259)" class="st3" width="9.3" height="9.3"/>
		
			<rect x="27.3" y="148.1" transform="matrix(0.2725 -0.9622 0.9622 0.2725 -123.7857 141.888)" class="st3" width="9.3" height="9.3"/>
		
			<rect x="29.8" y="139.2" transform="matrix(0.2725 -0.9622 0.9622 0.2725 -113.3824 137.85)" class="st3" width="9.3" height="9.3"/>
		
			<rect x="32.4" y="130.2" transform="matrix(0.2725 -0.9622 0.9622 0.2725 -102.8666 133.7682)" class="st3" width="9.3" height="9.3"/>
	</g>
	
		<rect x="34.9" y="121.4" transform="matrix(0.2725 -0.9622 0.9622 0.2725 -92.4604 129.7401)" class="st1" width="9.3" height="9.3"/>
	
		<rect x="37.4" y="112.5" transform="matrix(0.2725 -0.9622 0.9622 0.2725 -82.068 125.7102)" class="st1" width="9.3" height="9.3"/>
	
		<rect x="40" y="103.6" transform="matrix(0.2725 -0.9622 0.9622 0.2725 -71.6793 121.6779)" class="st2" width="9.3" height="9.3"/>
	
		<rect x="42.5" y="94.6" transform="matrix(0.2725 -0.9622 0.9622 0.2725 -61.1783 117.6019)" class="st2" width="9.3" height="9.3"/>
	<rect x="45" y="85.7" transform="matrix(0.2725 -0.9622 0.9622 0.2725 -50.8334 113.4572)" class="st2" width="9.3" height="9.3"/>
	
		<rect x="47.5" y="76.8" transform="matrix(0.2725 -0.9622 0.9622 0.2725 -40.4448 109.425)" class="st2" width="9.3" height="9.3"/>
	<rect x="50" y="67.9" transform="matrix(0.2725 -0.9622 0.9622 0.2725 -30.0524 105.395)" class="st2" width="9.3" height="9.3"/>
	
		<rect x="52.6" y="58.9" transform="matrix(0.2725 -0.9622 0.9622 0.2725 -19.5475 101.3213)" class="st2" width="9.3" height="9.3"/>
	<rect x="55.1" y="50.1" transform="matrix(0.2725 -0.9622 0.9622 0.2725 -9.1588 97.289)" class="st3" width="9.3" height="9.3"/>
	<rect x="57.6" y="41.2" transform="matrix(0.2725 -0.9622 0.9622 0.2725 1.2297 93.2567)" class="st3" width="9.3" height="9.3"/>
	<rect x="60.2" y="32.3" transform="matrix(0.2725 -0.9622 0.9622 0.2725 11.6184 89.2244)" class="st3" width="9.3" height="9.3"/>
	<rect x="62.7" y="23.3" transform="matrix(0.2725 -0.9622 0.9622 0.2725 22.1194 85.1484)" class="st2" width="9.3" height="9.3"/>
	<rect x="65.1" y="14.4" transform="matrix(0.2725 -0.9622 0.9622 0.2725 32.4643 81.0037)" class="st1" width="9.3" height="9.3"/>
	<rect x="67.7" y="5.5" transform="matrix(0.2725 -0.9622 0.9622 0.2725 42.8568 76.9738)" class="st1" width="9.3" height="9.3"/>
	
		<rect x="26" y="118.8" transform="matrix(0.2725 -0.9622 0.9622 0.2725 -96.4926 119.3515)" class="st1" width="9.3" height="9.3"/>
	
		<rect x="28.6" y="109.9" transform="matrix(0.2725 -0.9622 0.9622 0.2725 -86.1002 115.3215)" class="st1" width="9.3" height="9.3"/>
	<rect x="31" y="101" transform="matrix(0.2725 -0.9622 0.9622 0.2725 -75.7554 111.1769)" class="st2" width="9.3" height="9.3"/>
	
		<rect x="33.5" y="92.1" transform="matrix(0.2725 -0.9622 0.9622 0.2725 -65.2543 107.1008)" class="st2" width="9.3" height="9.3"/>
	
		<rect x="36.1" y="83.2" transform="matrix(0.2725 -0.9622 0.9622 0.2725 -54.8657 103.0686)" class="st2" width="9.3" height="9.3"/>
	<rect x="38.6" y="74.3" transform="matrix(0.2725 -0.9622 0.9622 0.2725 -44.477 99.0363)" class="st3" width="9.3" height="9.3"/>
	
		<rect x="41.1" y="65.4" transform="matrix(0.2725 -0.9622 0.9622 0.2725 -34.0846 95.0063)" class="st3" width="9.3" height="9.3"/>
	
		<rect x="43.7" y="56.4" transform="matrix(0.2725 -0.9622 0.9622 0.2725 -23.5797 90.9326)" class="st3" width="9.3" height="9.3"/>
	
		<rect x="46.2" y="47.5" transform="matrix(0.2725 -0.9622 0.9622 0.2725 -13.1912 86.9004)" class="st3" width="9.3" height="9.3"/>
	<rect x="48.7" y="38.6" transform="matrix(0.2725 -0.9622 0.9622 0.2725 -2.8025 82.868)" class="st2" width="9.3" height="9.3"/>
	<rect x="51.2" y="29.7" transform="matrix(0.2725 -0.9622 0.9622 0.2725 7.5423 78.7234)" class="st2" width="9.3" height="9.3"/>
	<rect x="53.7" y="20.8" transform="matrix(0.2725 -0.9622 0.9622 0.2725 17.931 74.6911)" class="st1" width="9.3" height="9.3"/>
	<rect x="56.3" y="11.9" transform="matrix(0.2725 -0.9622 0.9622 0.2725 28.432 70.6151)" class="st1" width="9.3" height="9.3"/>
	
		<rect x="17" y="116.3" transform="matrix(0.2725 -0.9622 0.9622 0.2725 -100.5687 108.8505)" class="st1" width="9.3" height="9.3"/>
	
		<rect x="19.6" y="107.4" transform="matrix(0.2725 -0.9622 0.9622 0.2725 -90.1763 104.8205)" class="st1" width="9.3" height="9.3"/>
	
		<rect x="22.1" y="98.5" transform="matrix(0.2725 -0.9622 0.9622 0.2725 -79.7876 100.7882)" class="st2" width="9.3" height="9.3"/>
	<rect x="24.6" y="89.6" transform="matrix(0.2725 -0.9622 0.9622 0.2725 -69.399 96.756)" class="st2" width="9.3" height="9.3"/>
	
		<rect x="27.2" y="80.6" transform="matrix(0.2725 -0.9622 0.9622 0.2725 -58.8979 92.6799)" class="st3" width="9.3" height="9.3"/>
	
		<rect x="29.7" y="71.8" transform="matrix(0.2725 -0.9622 0.9622 0.2725 -48.5094 88.6476)" class="st3" width="9.3" height="9.3"/>
	
		<rect x="32.2" y="62.9" transform="matrix(0.2725 -0.9622 0.9622 0.2725 -38.1169 84.6177)" class="st3" width="9.3" height="9.3"/>
	<rect x="34.8" y="54" transform="matrix(0.2725 -0.9622 0.9622 0.2725 -27.7245 80.5878)" class="st2" width="9.3" height="9.3"/>
	<rect x="37.2" y="45" transform="matrix(0.2725 -0.9622 0.9622 0.2725 -17.2672 76.3992)" class="st2" width="9.3" height="9.3"/>
	<rect x="39.8" y="36.1" transform="matrix(0.2725 -0.9622 0.9622 0.2725 -6.8786 72.367)" class="st1" width="9.3" height="9.3"/>
	<rect x="42.3" y="27.2" transform="matrix(0.2725 -0.9622 0.9622 0.2725 3.5101 68.3347)" class="st1" width="9.3" height="9.3"/>
	<rect x="44.8" y="18.3" transform="matrix(0.2725 -0.9622 0.9622 0.2725 13.8987 64.3025)" class="st1" width="9.3" height="9.3"/>
	
		<rect x="10.7" y="104.9" transform="matrix(0.2725 -0.9622 0.9622 0.2725 -94.2086 94.4319)" class="st1" width="9.3" height="9.3"/>
	<rect x="13.2" y="96" transform="matrix(0.2725 -0.9622 0.9622 0.2725 -83.8199 90.3996)" class="st1" width="9.3" height="9.3"/>
	
		<rect x="15.7" y="87.1" transform="matrix(0.2725 -0.9622 0.9622 0.2725 -73.4312 86.3673)" class="st2" width="9.3" height="9.3"/>
	
		<rect x="18.3" y="78.1" transform="matrix(0.2725 -0.9622 0.9622 0.2725 -62.9302 82.2913)" class="st2" width="9.3" height="9.3"/>
	<rect x="20.8" y="69.2" transform="matrix(0.2725 -0.9622 0.9622 0.2725 -52.5415 78.259)" class="st2" width="9.3" height="9.3"/>
	
		<rect x="23.3" y="60.3" transform="matrix(0.2725 -0.9622 0.9622 0.2725 -42.1929 74.1166)" class="st2" width="9.3" height="9.3"/>
	
		<rect x="25.8" y="51.4" transform="matrix(0.2725 -0.9622 0.9622 0.2725 -31.8005 70.0868)" class="st1" width="9.3" height="9.3"/>
	
		<rect x="28.4" y="42.4" transform="matrix(0.2725 -0.9622 0.9622 0.2725 -21.2995 66.0107)" class="st1" width="9.3" height="9.3"/>
	
		<rect x="30.9" y="33.6" transform="matrix(0.2725 -0.9622 0.9622 0.2725 -10.9108 61.9783)" class="st1" width="9.3" height="9.3"/>
	<rect x="4.3" y="93.4" transform="matrix(0.2725 -0.9622 0.9622 0.2725 -87.8522 80.011)" class="st1" width="9.3" height="9.3"/>
	<rect x="6.9" y="84.6" transform="matrix(0.2725 -0.9622 0.9622 0.2725 -77.4635 75.9787)" class="st1" width="9.3" height="9.3"/>
	<rect x="9.4" y="75.7" transform="matrix(0.2725 -0.9622 0.9622 0.2725 -67.0749 71.9464)" class="st1" width="9.3" height="9.3"/>
	
		<rect x="11.8" y="66.7" transform="matrix(0.2725 -0.9622 0.9622 0.2725 -56.6177 67.7579)" class="st1" width="9.3" height="9.3"/>
	<rect x="14.4" y="57.8" transform="matrix(0.2725 -0.9622 0.9622 0.2725 -46.2252 63.728)" class="st1" width="9.3" height="9.3"/>
	
		<rect x="16.9" y="48.9" transform="matrix(0.2725 -0.9622 0.9622 0.2725 -35.8328 59.6981)" class="st1" width="9.3" height="9.3"/>
</g>
</svg>
